<?xml version="1.0" standalone="no"?>
<!DOCTYPE svg PUBLIC "-//W3C//DTD SVG 1.1//EN" "http://www.w3.org/Graphics/SVG/1.1/DTD/svg11.dtd" >
<svg xmlns="http://www.w3.org/2000/svg">
<metadata></metadata>
<defs>
<font id="rentlerawesomeregular" horiz-adv-x="1755" >
<font-face units-per-em="2048" ascent="1755" descent="-293" />
<missing-glyph horiz-adv-x="512" />
<glyph horiz-adv-x="2048" />
<glyph horiz-adv-x="2048" />
<glyph unicode="&#xd;" horiz-adv-x="681" />
<glyph unicode=" "  horiz-adv-x="512" />
<glyph unicode="&#x09;" horiz-adv-x="512" />
<glyph unicode="&#xa0;" horiz-adv-x="512" />
<glyph unicode="&#x2000;" horiz-adv-x="878" />
<glyph unicode="&#x2001;" horiz-adv-x="1757" />
<glyph unicode="&#x2002;" horiz-adv-x="878" />
<glyph unicode="&#x2003;" horiz-adv-x="1757" />
<glyph unicode="&#x2004;" horiz-adv-x="585" />
<glyph unicode="&#x2005;" horiz-adv-x="439" />
<glyph unicode="&#x2006;" horiz-adv-x="292" />
<glyph unicode="&#x2007;" horiz-adv-x="292" />
<glyph unicode="&#x2008;" horiz-adv-x="219" />
<glyph unicode="&#x2009;" horiz-adv-x="351" />
<glyph unicode="&#x200a;" horiz-adv-x="97" />
<glyph unicode="&#x202f;" horiz-adv-x="351" />
<glyph unicode="&#x205f;" horiz-adv-x="439" />
<glyph unicode="&#x25fc;" horiz-adv-x="1024" d="M0 0z" />
<glyph unicode="&#xf000;" horiz-adv-x="2048" d="M106 1542q0 27 20.5 42t43.5 20.5t49 5.5h1610q27 0 49.5 -5.5t43 -20.5t20.5 -42q0 -39 -50 -88l-723 -723v-876h367q31 0 52.5 -22.5t21.5 -52.5t-21.5 -51.5t-52.5 -21.5h-1024q-31 0 -52.5 21.5t-21.5 51.5t21.5 52.5t52.5 22.5h367v876l-723 723q-49 49 -50 88z" />
<glyph unicode="&#xf001;" d="M0 -73.5q0 57.5 39 102.5t98.5 69.5t117.5 35.5t112 11q119 0 219 -43v1104q0 37 21.5 65.5t56.5 41.5l950 291q14 6 33 6q45 0 76.5 -33t31.5 -78v-1280q0 -57 -39 -101t-98 -68.5t-117.5 -37t-111 -12.5t-110.5 12.5t-117.5 37t-98.5 68.5t-39 101t39 102.5t98.5 70 t117.5 35.5t112 11q119 0 219 -43v613l-879 -271v-811q0 -57 -39 -101t-98 -68.5t-117.5 -37t-111 -12.5t-110.5 12.5t-117.5 37t-98.5 68.5t-39 101.5z" />
<glyph unicode="&#xf002;" horiz-adv-x="1845" d="M0 866q0 154 58.5 288t159.5 235.5t237.5 160t289.5 58.5q156 0 292.5 -58.5t237.5 -160t159.5 -235.5t58.5 -288q0 -125 -38 -237.5t-105 -206.5l493 -492l-219 -219l-502 504q-86 -45 -179 -71.5t-198 -26.5q-154 0 -290 58t-237 159.5t-159.5 238t-58.5 293.5z M199 866q0 -117 43 -218t116.5 -176t172.5 -119t214 -44q113 0 213.5 44t176 119t118.5 176.5t43 217.5q0 111 -43 210.5t-118.5 173t-176 117.5t-213.5 44q-115 0 -214 -44t-172.5 -117.5t-116.5 -173t-43 -210.5z" />
<glyph unicode="&#xf003;" horiz-adv-x="2201" d="M0 41v1153l1102 -858l1100 858v-1153q0 -72 -49.5 -121t-122.5 -49h-1858q-35 0 -66.5 13.5t-55 36t-37 53t-13.5 67.5zM0 1384v33q0 37 13.5 68t37 54.5t55 36.5t66.5 13h1858q74 0 123 -50t49 -122v-33l-1100 -862z" />
<glyph unicode="&#xf004;" horiz-adv-x="2052" d="M0 1073q0 125 38 225.5t109.5 170t173 106.5t230.5 37q70 0 137.5 -23.5t128 -59.5t111.5 -77t88 -76q0 -6 10 -16l8 8t6 8q37 35 87.5 76t110.5 77t127.5 59.5t139.5 23.5q129 0 230.5 -37t172 -106.5t107.5 -170t37 -225.5q0 -102 -40 -194.5t-87 -161t-88 -111.5 t-41 -47l-770 -735l-764 735q-4 4 -46 47t-90 111.5t-87 161t-39 194.5z" />
<glyph unicode="&#xf005;" horiz-adv-x="1974" d="M0 1028l686 100l301 629l303 -629l684 -100l-489 -487l114 -688l-612 321l-610 -321l121 688z" />
<glyph unicode="&#xf006;" horiz-adv-x="1974" d="M0 1028l686 100l301 629l303 -629l684 -100l-489 -487l114 -688l-612 321l-610 -321l121 688zM293 934l295 -295l55 -51l-14 -70l-68 -409l361 190l65 35l66 -35l362 -190l-69 409l-13 70l53 51l300 295l-414 59l-68 11l-33 65l-184 375l-184 -375l-31 -65l-70 -11z" />
<glyph unicode="&#xf007;" horiz-adv-x="1376" d="M0 41q-2 18 4 85t20.5 148.5t36 158.5t48.5 116q27 37 59.5 56.5t71.5 32.5t83 27.5t93 41.5q14 8 24.5 15t22.5 17q47 -57 105.5 -91t117.5 -34t119.5 35t107.5 94q18 -23 50 -36q49 -27 92 -41.5t81 -27.5t71.5 -32.5t62.5 -56.5q27 -39 47 -116t33.5 -158.5 t19.5 -148.5t4 -85q-6 -41 -24.5 -55.5t-49.5 -28.5q-14 -6 -66 -22.5t-131 -34t-178.5 -32.5t-207.5 -18h-27h-6h-29q-106 2 -204.5 17.5t-177 33t-131 34t-66.5 22.5q-33 14 -49.5 28.5t-26.5 55.5zM341 1172.5q-1 29.5 24 23.5v-2q-8 90 4 167t50 132t103.5 87t163.5 32 q96 0 161.5 -32t104.5 -87t51.5 -132t2.5 -167l4 2q23 6 23.5 -23.5t-13.5 -64.5q-8 -37 -13.5 -59.5t-17.5 -26.5q-12 -2 -14 6q-12 -59 -41 -115.5t-69 -101.5t-86 -71.5t-93 -26.5t-93 26.5t-85 71.5t-67.5 101.5t-43.5 115.5q0 -10 -14 -6t-18.5 26.5t-14.5 59.5 q-8 35 -9 64.5z" />
<glyph unicode="&#xf008;" horiz-adv-x="2193" d="M0 -111v1536q0 76 53 130.5t129 54.5h1829q76 0 129 -54.5t53 -130.5v-1536q0 -74 -53 -128t-129 -54h-1829q-76 0 -129 54.5t-53 127.5zM145 74v-148q0 -29 22.5 -50t51.5 -21h148q29 0 50 21t21 50v148q0 29 -21.5 50t-49.5 21h-148q-29 0 -51.5 -21.5t-22.5 -49.5z M145 367q0 -31 22.5 -52.5t51.5 -21.5h148q29 0 50 21.5t21 52.5v145q0 31 -21.5 52.5t-49.5 21.5h-148q-29 0 -51.5 -21.5t-22.5 -52.5v-145zM145 805q0 -31 22.5 -52.5t51.5 -21.5h148q29 0 50 21.5t21 52.5v145q0 31 -21.5 52.5t-49.5 21.5h-148q-29 0 -51.5 -21.5 t-22.5 -52.5v-145zM145 1243q0 -29 22.5 -51.5t51.5 -22.5h148q29 0 50 22.5t21 51.5v148q0 29 -21.5 50t-49.5 21h-148q-29 0 -51.5 -21.5t-22.5 -49.5v-148zM586 -74q0 -29 21.5 -50t49.5 -21h879q31 0 52.5 21t21.5 50v586q0 31 -21.5 52.5t-52.5 21.5h-879 q-29 0 -50 -21.5t-21 -52.5v-586zM586 805q0 -31 21.5 -52.5t49.5 -21.5h879q31 0 52.5 21.5t21.5 52.5v586q0 29 -21.5 50t-52.5 21h-879q-29 0 -50 -21.5t-21 -49.5v-586zM1755 74v-148q0 -29 21.5 -50t52.5 -21h145q31 0 52.5 21t21.5 50v148q0 29 -21.5 50t-52.5 21 h-145q-31 0 -52.5 -21.5t-21.5 -49.5zM1755 367q0 -31 21.5 -52.5t52.5 -21.5h145q31 0 52.5 21.5t21.5 52.5v145q0 31 -21.5 52.5t-52.5 21.5h-145q-31 0 -52.5 -21.5t-21.5 -52.5v-145zM1755 805q0 -31 21.5 -52.5t52.5 -21.5h145q31 0 52.5 21.5t21.5 52.5v145 q0 31 -21.5 52.5t-52.5 21.5h-145q-31 0 -52.5 -21.5t-21.5 -52.5v-145zM1755 1243q0 -29 21.5 -51.5t52.5 -22.5h145q31 0 52.5 22.5t21.5 51.5v148q0 29 -21.5 50t-52.5 21h-145q-31 0 -52.5 -21.5t-21.5 -49.5v-148z" />
<glyph unicode="&#xf009;" horiz-adv-x="1902" d="M0 145v441q0 59 43 102t102 43h586q59 0 103.5 -43t44.5 -102v-441q0 -59 -44 -102t-104 -43h-586q-59 0 -102 43t-43 102zM0 1024v438q0 59 43 103.5t102 44.5h586q59 0 103.5 -44.5t44.5 -103.5v-438q0 -59 -44 -102t-104 -43h-586q-59 0 -102 43t-43 102zM1024 145 v441q0 59 43 102t102 43h586q59 0 103.5 -43t44.5 -102v-441q0 -59 -44 -102t-104 -43h-586q-59 0 -102 43t-43 102zM1024 1024v438q0 59 43 103.5t102 44.5h586q59 0 103.5 -44.5t44.5 -103.5v-438q0 -59 -44 -102t-104 -43h-586q-59 0 -102 43t-43 102z" />
<glyph unicode="&#xf00a;" horiz-adv-x="2048" d="M0 111v219q0 45 31.5 76.5t79.5 31.5h364q45 0 78 -31.5t33 -76.5v-219q0 -47 -33 -79t-78 -32h-364q-47 0 -79 31.5t-32 79.5zM0 694v219q0 47 31.5 79t79.5 32h364q45 0 78 -32t33 -79v-219q0 -45 -33 -76.5t-78 -31.5h-364q-47 0 -79 31.5t-32 76.5zM0 1280v219 q0 45 31.5 78t79.5 33h364q45 0 78 -33t33 -78v-219q0 -45 -33 -78t-78 -33h-364q-47 0 -79 33t-32 78zM731 111v219q0 45 32 76.5t79 31.5h364q47 0 79 -31.5t32 -76.5v-219q0 -47 -32 -79t-79 -32h-364q-47 0 -79 31.5t-32 79.5zM731 694v219q0 47 32 79t79 32h364 q47 0 79 -32t32 -79v-219q0 -45 -32 -76.5t-79 -31.5h-364q-47 0 -79 31.5t-32 76.5zM731 1280v219q0 45 32 78t79 33h364q47 0 79 -33t32 -78v-219q0 -45 -32 -78t-79 -33h-364q-47 0 -79 33t-32 78zM1462 111v219q0 45 33 76.5t78 31.5h364q47 0 79 -31.5t32 -76.5v-219 q0 -47 -31.5 -79t-79.5 -32h-364q-45 0 -78 31.5t-33 79.5zM1462 694v219q0 47 33 79t78 32h364q47 0 79 -32t32 -79v-219q0 -45 -31.5 -76.5t-79.5 -31.5h-364q-45 0 -78 31.5t-33 76.5zM1462 1280v219q0 45 33 78t78 33h364q47 0 79 -33t32 -78v-219q0 -45 -31.5 -78 t-79.5 -33h-364q-45 0 -78 33t-33 78z" />
<glyph unicode="&#xf00b;" horiz-adv-x="2048" d="M0 111v219q0 45 31.5 76.5t79.5 31.5h364q45 0 78 -31.5t33 -76.5v-219q0 -47 -33 -79t-78 -32h-364q-47 0 -79 31.5t-32 79.5zM0 694v219q0 47 31.5 79t79.5 32h364q45 0 78 -32t33 -79v-219q0 -45 -33 -76.5t-78 -31.5h-364q-47 0 -79 31.5t-32 76.5zM0 1280v219 q0 45 31.5 78t79.5 33h364q45 0 78 -33t33 -78v-219q0 -45 -33 -78t-78 -33h-364q-47 0 -79 33t-32 78zM731 111v219q0 45 32 76.5t79 31.5h1095q47 0 79 -31.5t32 -76.5v-219q0 -47 -31.5 -79t-79.5 -32h-1095q-47 0 -79 31.5t-32 79.5zM731 694v219q0 47 32 79t79 32h1095 q47 0 79 -32t32 -79v-219q0 -45 -31.5 -76.5t-79.5 -31.5h-1095q-47 0 -79 31.5t-32 76.5zM731 1280v219q0 45 32 78t79 33h1095q47 0 79 -33t32 -78v-219q0 -45 -31.5 -78t-79.5 -33h-1095q-47 0 -79 33t-32 78z" />
<glyph unicode="&#xf00c;" horiz-adv-x="2048" d="M139 695q0 46 31 77l156 156q33 33 78 33t77 -33l336 -336l750 749q33 33 78 33t77 -33l156 -155q31 -31 31 -77t-31 -79l-827 -827l-156 -156q-33 -31 -78 -31t-78 31l-155 156l-414 413q-31 33 -31 79z" />
<glyph unicode="&#xf00d;" horiz-adv-x="1609" d="M125 245q0 46 33 77l336 335l-336 336q-33 33 -33 79t33 77l155 156q33 33 78 32.5t78 -32.5l336 -336l336 336q33 33 78 32.5t77 -32.5l156 -156q31 -31 31 -77t-31 -79l-336 -336l336 -335q31 -31 31 -77t-31 -79l-156 -154q-33 -33 -77.5 -32.5t-77.5 32.5l-336 336 l-336 -336q-33 -33 -78 -32.5t-78 32.5l-155 154q-33 33 -33 79z" />
<glyph unicode="&#xf00e;" horiz-adv-x="1902" d="M0 805q0 164 63.5 312.5t171 257t257 172t313.5 63.5t312.5 -63.5t257 -172t172 -257t63.5 -312.5q0 -252 -142 -457l392 -391q43 -43 43 -103.5t-43.5 -103.5t-104.5 -43t-102 43l-391 391q-205 -141 -457 -141q-164 0 -313.5 63.5t-257 171t-171 257t-63.5 313.5z M293 805q0 -211 150.5 -361.5t361 -151t360.5 149.5q152 152 152 363t-150.5 361.5t-361.5 150.5t-361.5 -150.5t-150.5 -361.5zM438 768v74q0 14 11.5 25.5t25.5 11.5h256v256q0 14 11.5 24t25.5 10h74q14 0 25.5 -10t11.5 -24v-256h256q14 0 24 -11.5t10 -25.5v-74 q0 -14 -10 -25.5t-24 -11.5h-256v-256q0 -14 -11.5 -25.5t-25.5 -11.5h-74q-14 0 -25.5 11.5t-11.5 25.5v256h-256q-14 0 -25.5 11.5t-11.5 25.5z" />
<glyph unicode="&#xf010;" horiz-adv-x="1902" d="M0 805q0 164 63.5 312.5t171 257t257 172t313.5 63.5t312.5 -63.5t257 -172t172 -257t63.5 -312.5q0 -252 -142 -457l392 -391q43 -43 43 -103.5t-43.5 -103.5t-104.5 -43t-102 43l-391 391q-205 -141 -457 -141q-164 0 -313.5 63.5t-257 171t-171 257t-63.5 313.5z M293 805q0 -211 150.5 -361.5t361 -151t360.5 149.5q152 152 152 363t-150.5 361.5t-361.5 150.5t-361.5 -150.5t-150.5 -361.5zM438 768v74q0 14 11.5 25.5t25.5 11.5h660q14 0 24 -11.5t10 -25.5v-74q0 -14 -10 -25.5t-24 -11.5h-660q-14 0 -25.5 11.5t-11.5 25.5z" />
<glyph unicode="&#xf011;" d="M0 731q0 209 92 392.5t258 308.5q49 37 109.5 28.5t95.5 -57.5q37 -47 28.5 -107.5t-57.5 -97.5q-111 -84 -172 -206t-61 -261q0 -119 46 -226.5t125 -186t187.5 -126t227 -47.5t226 47.5t186.5 126t125 186t46 226.5q0 139 -60.5 261t-172.5 206q-49 37 -57.5 97.5 t28.5 107.5q35 49 95.5 57t109.5 -28q166 -125 258 -308.5t92 -392.5q0 -178 -69.5 -340t-187.5 -279.5t-279.5 -187t-340 -69.5t-341 69.5t-280.5 187t-187.5 279.5t-69.5 340zM731 879v731q0 59 44 102t103.5 43t102.5 -43t43 -102v-731q0 -59 -43 -103.5t-102.5 -44.5 t-103.5 44t-44 104z" />
<glyph unicode="&#xf012;" horiz-adv-x="2048" d="M0 -111v222q0 14 10 24t27 10h219q16 0 26.5 -10t10.5 -24v-222q0 -14 -10.5 -24t-26.5 -10h-219q-16 0 -26.5 10t-10.5 24zM438 -111v367q0 16 10.5 26.5t26.5 10.5h219q16 0 26.5 -10.5t10.5 -26.5v-367q0 -14 -10 -24t-27 -10h-219q-16 0 -26.5 10t-10.5 24zM879 -111 v660q0 16 10 26.5t24 10.5h222q14 0 24 -10.5t10 -26.5v-660q0 -14 -10 -24t-24 -10h-222q-14 0 -24 10t-10 24zM1317 -111v1098q0 16 10 26.5t27 10.5h219q16 0 26.5 -10.5t10.5 -26.5v-1098q0 -14 -10.5 -24t-26.5 -10h-219q-16 0 -26.5 10t-10.5 24zM1755 -111v1684 q0 16 10.5 26.5t26.5 10.5h219q16 0 26.5 -10.5t10.5 -26.5v-1684q0 -14 -10 -24t-27 -10h-219q-16 0 -26.5 10t-10.5 24z" />
<glyph unicode="&#xf013;" d="M0 606v254q0 14 9 26.5t22 14.5l213 33q16 53 45 104q-47 66 -123 158q-12 14 -12 29q0 10 10 24q31 43 113.5 124t107.5 81q14 0 31 -10l157 -123q49 27 103 43q18 156 35 213q6 33 41 33h254q14 0 26 -10.5t15 -24.5l30 -211q57 -18 103 -41l163 121q10 10 27 10 q14 0 29 -10q147 -137 188 -195q8 -10 8 -24t-8 -27q-18 -25 -59 -77t-62 -81q29 -57 47 -110l209 -33q14 -2 23.5 -14.5t9.5 -26.5v-254q0 -14 -9 -26.5t-22 -14.5l-213 -33q-20 -61 -43 -102q39 -57 121 -158q12 -14 12.5 -29.5t-10.5 -25.5q-31 -43 -113.5 -124 t-107.5 -81q-14 0 -29 10l-157 123q-51 -27 -105 -43q-18 -156 -32 -213q-8 -31 -41 -30h-254q-16 0 -28.5 9t-12.5 23l-33 211q-55 18 -103 43l-161 -123q-12 -10 -29 -10q-16 0 -29 12q-143 131 -188 193q-8 10 -8 27q0 12 10 24q16 25 57 77t62 81q-31 57 -47 113 l-209 30q-14 2 -23.5 14.5t-9.5 26.5zM586 731q0 -121 85 -207t206.5 -86t205.5 86q86 86 86 207t-85 207t-206.5 86t-206.5 -86t-85 -207z" />
<glyph unicode="&#xf014;" horiz-adv-x="1609" d="M0 1206v74q0 16 10 26.5t27 10.5h352l80 190q18 43 62 73t92 30h364q45 0 90 -30t62 -73l80 -190h354q16 0 26.5 -10.5t10.5 -26.5v-74q0 -16 -10.5 -26.5t-26.5 -10.5h-111v-1083q0 -94 -53 -162.5t-129 -68.5h-950q-76 0 -130.5 66.5t-54.5 160.5v1087h-108 q-16 0 -26.5 10.5t-10.5 26.5zM293 86q0 -25 8 -46.5t16.5 -30.5t12.5 -9h950q4 0 12 9t16.5 30.5t8.5 46.5v1083h-1024v-1083zM438 256v657q0 16 10.5 26.5t26.5 10.5h74q16 0 26.5 -10.5t10.5 -26.5v-657q0 -16 -10.5 -26.5t-26.5 -10.5h-74q-16 0 -26.5 10.5t-10.5 26.5z M549 1317h512l-55 133q-8 10 -19 12h-362q-12 -2 -21 -12zM731 256v657q0 16 10.5 26.5t26.5 10.5h74q16 0 26.5 -10.5t10.5 -26.5v-657q0 -16 -10.5 -26.5t-26.5 -10.5h-74q-16 0 -26.5 10.5t-10.5 26.5zM1024 256v657q0 16 10 26.5t27 10.5h74q14 0 24 -10.5t10 -26.5 v-657q0 -16 -10 -26.5t-24 -10.5h-74q-16 0 -26.5 10.5t-10.5 26.5z" />
<glyph unicode="&#xf015;" horiz-adv-x="1691" d="M0 793l846 845l491 -497v108h170v-274l183 -182q-37 -37 -90.5 -37t-92.5 37l-661 663l-664 -663q-39 -37 -91 -37t-91 37zM182 129v481l664 668l661 -668v-481q0 -53 -36.5 -91t-90.5 -38h-374v319q0 53 -38 88t-91 35h-62q-53 0 -91 -34.5t-38 -88.5v-319h-377 q-51 0 -89 38t-38 91z" />
<glyph unicode="&#xf016;" horiz-adv-x="1462" d="M0 -37v1536q0 45 31.5 78t79.5 33h731q45 0 100 -23.5t86 -54.5l356 -356q33 -33 55.5 -88.5t22.5 -100.5v-1024q0 -45 -31.5 -76.5t-76.5 -31.5h-1243q-47 0 -79 31.5t-32 76.5zM145 0h1172v879h-475q-47 0 -79 31.5t-32 76.5v475h-586v-1462zM879 1024h428 q-10 33 -25 47l-358 359q-12 12 -45 24v-430z" />
<glyph unicode="&#xf017;" d="M0 732.5q0 238.5 118 440t319.5 319.5t440 118t440 -118t318.5 -321q119 -201 119 -439t-117.5 -440t-319.5 -319.5t-440.5 -117.5t-440 117.5t-319.5 319.5t-118 440.5zM256 732q0 -169 83 -312.5t226.5 -226t312.5 -82.5t312 83t225 226q84 143 84 312t-83 311.5 t-226 226.5t-312 84t-312.5 -84t-226.5 -226.5t-83 -311.5zM586 623v71q0 16 10 26.5t27 10.5h256v404q0 14 10 24t24 10h74q16 0 26.5 -10t10.5 -24v-512q0 -16 -10 -26.5t-27 -10.5h-364q-16 0 -26.5 10t-10.5 27z" />
<glyph unicode="&#xf018;" horiz-adv-x="2193" d="M57 84q0 61 29 131l477 1194q10 23 30.5 38t43.5 15h387q-14 0 -25.5 -10t-13.5 -27l-16 -219q-2 -16 8 -26.5t24 -10.5h191q14 0 24.5 10.5t10.5 26.5l-19 219q0 16 -11 26.5t-28 10.5h390q23 0 43 -15t28 -38l477 -1194q31 -70 31 -131q0 -84 -53 -84h-805 q14 0 24.5 11.5t10.5 25.5l-23 293q-2 14 -13 25.5t-26 11.5h-311q-14 0 -26.5 -11.5t-12.5 -25.5l-22 -293q-2 -14 8 -25.5t24 -11.5h-802q-53 0 -54 84zM924 616q0 -12 10 -21t24 -9h279q12 0 23.5 9t9.5 21v7l-27 364q-2 14 -13 25.5t-26 11.5h-213q-14 0 -26.5 -11.5 t-12.5 -25.5l-28 -364v-7z" />
<glyph unicode="&#xf019;" horiz-adv-x="1902" d="M0 111v364q0 45 31.5 78t79.5 33h530l154 -156q68 -63 156.5 -63t154.5 63l156 156h530q45 0 78 -33t33 -78v-364q0 -47 -33 -79t-78 -32h-1681q-47 0 -79 31.5t-32 79.5zM371 1126q20 43 67 43h293v512q0 31 21.5 52.5t52.5 21.5h293q29 0 50 -21.5t21 -52.5v-512h293 q50 0 68 -43q20 -47 -17 -79l-512 -512q-20 -23 -50.5 -23t-51.5 23l-512 512q-35 33 -16 79zM1317 220q0 -30 21.5 -52.5t51.5 -22.5t50 23q23 23 22.5 52.5t-22 51t-51 21.5t-51 -21.5t-21.5 -51.5zM1610 220q0 -30 21.5 -52.5t51.5 -22.5t50 23q23 23 22.5 52.5t-22 51 t-51 21.5t-51 -21.5t-21.5 -51.5z" />
<glyph unicode="&#xf01a;" d="M0 732.5q0 238.5 118 440t319.5 319.5t440 118t440 -118t318.5 -321q119 -201 119 -439t-117.5 -440t-319.5 -319.5t-440.5 -117.5t-440 117.5t-319.5 319.5t-118 440.5zM256 732q0 -169 83 -312.5t226.5 -226t312.5 -82.5t312 82.5t226 226t83 312.5t-83 311.5 t-226 226.5t-312 84t-312.5 -84t-226.5 -226.5t-83 -311.5zM477 709q10 23 35 22h219v404q0 14 10.5 24t26.5 10h219q16 0 26.5 -10t10.5 -24v-404h219q16 0 26.5 -10.5t10.5 -26.5q0 -12 -12 -26l-365 -365q-12 -10 -25.5 -10t-25.5 10l-367 365q-16 18 -8 41z" />
<glyph unicode="&#xf01b;" d="M0 732.5q0 238.5 118 440t319.5 319.5t440 118t440 -118t318.5 -321q119 -201 119 -439t-117.5 -440t-319.5 -319.5t-440.5 -117.5t-440 117.5t-319.5 319.5t-118 440.5zM256 732q0 -169 83 -312.5t226.5 -226t312.5 -82.5t312 82.5t226 226t83 312.5t-83 311.5 t-226 226.5t-312 84t-312.5 -84t-226.5 -226.5t-83 -311.5zM475 768q0 14 12 27l365 364q12 10 25.5 10t25.5 -10l367 -364q16 -18 8 -41q-10 -23 -35 -23h-219v-401q0 -16 -10 -26.5t-27 -10.5h-219q-16 0 -26.5 10t-10.5 27v401h-219q-16 0 -26.5 10.5t-10.5 26.5z" />
<glyph unicode="&#xf01c;" d="M0 74v551q0 70 29 139l272 631q10 29 41 48t59 19h953q29 0 59.5 -19.5t40.5 -47.5l272 -631q29 -69 29 -139v-551q0 -31 -21.5 -52.5t-52.5 -21.5h-1607q-31 0 -52.5 21.5t-21.5 52.5zM225 657h361l108 -219h367l108 219h361q0 4 -2 10.5t-4 8.5l-242 567h-809 l-242 -567q-2 -2 -4 -8t-2 -11z" />
<glyph unicode="&#xf01d;" d="M0 732.5q0 238.5 118 440t319.5 319.5t440 118t440 -118t318.5 -321q119 -201 119 -439t-117.5 -440t-319.5 -319.5t-440.5 -117.5t-440 117.5t-319.5 319.5t-118 440.5zM256 732q0 -169 83 -312.5t226.5 -226t312.5 -82.5t312 83t225 226q84 143 84 312t-83 311.5 t-226 226.5t-312 84t-312.5 -84t-226.5 -226.5t-83 -311.5zM586 367v731q0 41 37 63q37 20 71 -2l623 -364q37 -20 37 -63.5t-37 -63.5l-623 -365q-16 -10 -37 -10q-16 0 -34 8q-37 23 -37 66z" />
<glyph unicode="&#xf01e;" d="M0 731q0 178 69.5 341t187.5 280.5t280.5 187.5t341.5 70q168 0 324.5 -63.5t279.5 -180.5l147 147q35 37 80 17q45 -19 45 -68v-512q0 -29 -21.5 -50t-52.5 -21h-512q-47 0 -65 45q-20 45 14 77l158 158q-168 158 -397 158q-119 0 -227.5 -46t-187.5 -125t-125 -187.5 t-46 -227.5t46 -226.5t125 -186t187.5 -126t227.5 -47.5q135 0 255.5 59.5t204.5 168.5q8 12 27 14q16 0 29 -10l155 -158q10 -8 11.5 -22.5t-9.5 -26.5q-123 -152 -300 -233.5t-373 -81.5q-178 0 -341 69.5t-281 187t-187.5 279.5t-69.5 340z" />
<glyph unicode="&#xf021;" d="M0 0v512q0 31 21.5 52.5t52.5 21.5h512q29 0 50 -21.5t21 -52.5t-20 -51l-158 -158q82 -74 184.5 -116t215.5 -42q152 0 284.5 75t212.5 206q12 18 60 133q10 27 34 27h220q16 0 26 -11.5t10 -25.5v-8q-74 -307 -307 -496.5t-547 -189.5q-166 0 -321.5 62.5t-278.5 178.5 l-147 -147q-23 -23 -52.5 -23t-51 21.5t-21.5 52.5zM20 913v9q74 307 308.5 497.5t550.5 190.5q166 0 323.5 -63.5t280.5 -180.5l147 147q23 23 52.5 23t51 -21.5t21.5 -52.5v-512q0 -29 -21.5 -50t-52.5 -21h-512q-29 0 -50 21.5t-21 51t20 49.5l158 158q-168 158 -397 158 q-154 0 -287 -75t-213 -204q-12 -20 -60 -135q-10 -25 -34 -24h-228q-14 0 -25.5 10t-11.5 24z" />
<glyph unicode="&#xf022;" horiz-adv-x="2048" d="M0 182v1243q0 76 53 130.5t129 54.5h1684q76 0 129 -54.5t53 -130.5v-1243q0 -76 -53 -129t-129 -53h-1684q-76 0 -129 53t-53 129zM145 182q0 -14 11.5 -25.5t25.5 -11.5h1684q14 0 25.5 11.5t11.5 25.5v953q0 14 -11.5 24t-25.5 10h-1684q-14 0 -25.5 -10t-11.5 -24 v-953zM293 330v71q0 16 10 26.5t27 10.5h71q16 0 26.5 -10.5t10.5 -26.5v-71q0 -16 -10 -26.5t-27 -10.5h-71q-16 0 -26.5 10t-10.5 27zM293 623v71q0 16 10 26.5t27 10.5h71q16 0 26.5 -10.5t10.5 -26.5v-71q0 -16 -10 -26.5t-27 -10.5h-71q-16 0 -26.5 10t-10.5 27z M293 913v74q0 14 10 25.5t27 11.5h71q16 0 26.5 -11.5t10.5 -25.5v-74q0 -14 -10 -24t-27 -10h-71q-16 0 -26.5 10t-10.5 24zM586 330v71q0 16 10 26.5t27 10.5h1095q16 0 26.5 -10.5t10.5 -26.5v-71q0 -16 -10 -26.5t-27 -10.5h-1095q-16 0 -26.5 10t-10.5 27zM586 623v71 q0 16 10 26.5t27 10.5h1095q16 0 26.5 -10.5t10.5 -26.5v-71q0 -16 -10 -26.5t-27 -10.5h-1095q-16 0 -26.5 10t-10.5 27zM586 913v74q0 14 10 25.5t27 11.5h1095q16 0 26.5 -11.5t10.5 -25.5v-74q0 -14 -10 -24t-27 -10h-1095q-16 0 -26.5 10t-10.5 24z" />
<glyph unicode="&#xf023;" horiz-adv-x="1198" d="M0 172v633q0 72 51 115t121 43h21v483q0 74 52 124t122 50h469q70 0 119 -50t49 -124v-483h24q72 0 121 -43t49 -115v-633q0 -37 -13.5 -67.5t-37 -54t-54 -37t-65.5 -13.5h-856q-35 0 -65.5 13.5t-54 37t-38 54t-14.5 67.5zM371 963h454v403q0 33 -21.5 56.5t-53.5 23.5 h-299q-33 0 -56.5 -23.5t-23.5 -56.5v-403zM489 451q0 -35 19.5 -62t48.5 -39q0 -4 -2 -7t-2 -9v-86q0 -18 13.5 -31.5t31.5 -13.5q20 0 33.5 13t13.5 32v86q0 12 -4 16q31 12 49.5 39t18.5 62q0 45 -32 77.5t-79 32.5q-45 0 -77 -32.5t-32 -77.5z" />
<glyph unicode="&#xf024;" horiz-adv-x="2048" d="M74 1462q0 61 43 104.5t103.5 43.5t103.5 -43.5t43 -104.5q0 -82 -74 -125v-1448q0 -14 -11.5 -24t-25.5 -10h-74q-14 0 -25.5 10t-11.5 24v1448q-72 43 -71 125zM367 367v847q0 35 34 62q25 16 91 49q270 137 481 137q123 0 228.5 -32.5t250.5 -100.5q43 -23 100 -22 q61 0 134 24.5t126.5 54t100.5 53t61 23.5q31 0 52.5 -21t21.5 -50v-873q0 -29 -14.5 -44t-44.5 -32q-246 -133 -422 -133q-70 0 -141.5 25.5t-124 55.5t-132 54.5t-161.5 24.5q-221 0 -531 -166q-20 -10 -39 -10q-29 0 -50 21.5t-21 52.5z" />
<glyph unicode="&#xf025;" horiz-adv-x="1902" d="M0 743q0 172 77 332t205 277.5t304 187.5t365.5 70t365.5 -70t304 -187.5t205 -277.5t77 -332q0 -190 -70 -358l-23 -57l-211 -37q-27 -96 -104.5 -156.5t-177.5 -60.5v-37q0 -16 -10.5 -26.5t-26.5 -10.5h-74q-16 0 -26.5 10t-10.5 27v657q0 16 10.5 26.5t26.5 10.5h74 q16 0 26.5 -10t10.5 -27v-37q80 0 147.5 -39.5t106.5 -109.5l78 14q33 109 32 221q0 168 -100 318.5t-270 240t-360.5 89.5t-360.5 -89.5t-270.5 -240t-100.5 -318.5q0 -113 33 -221l78 -14q39 70 106.5 109.5t149.5 39.5v37q0 16 10 26.5t27 10.5h71q16 0 26.5 -10 t10.5 -27v-657q0 -16 -10 -26.5t-27 -10.5h-71q-16 0 -26.5 10t-10.5 27v37q-100 0 -179 60.5t-104 156.5l-211 37l-24 57q-68 168 -68 358z" />
<glyph unicode="&#xf026;" horiz-adv-x="878" d="M0 512v438q0 31 21.5 52.5t52.5 21.5h299l381 381q20 20 50 20t52.5 -21t22.5 -50v-1243q0 -31 -22.5 -52.5t-52.5 -21.5t-50 20l-381 381h-299q-31 0 -52.5 21.5t-21.5 52.5z" />
<glyph unicode="&#xf027;" horiz-adv-x="1316" d="M0 512v438q0 31 21.5 52.5t52.5 21.5h299l381 381q20 20 50 20t52.5 -21t22.5 -50v-1243q0 -31 -22.5 -52.5t-52.5 -21.5t-50 20l-381 381h-299q-31 0 -52.5 21.5t-21.5 52.5zM1038 530q0 25 13.5 41.5t33 28.5t39 26.5t32.5 40t13 64.5t-13 65.5t-32.5 41t-39 25.5 t-33 28.5t-13.5 40.5q0 31 21.5 52.5t50.5 21.5q18 0 29 -7q80 -31 129 -105.5t49 -161.5t-49 -161.5t-129 -107.5q-10 -6 -29 -6q-29 0 -50.5 21.5t-21.5 51.5z" />
<glyph unicode="&#xf028;" horiz-adv-x="1902" d="M0 512v438q0 31 21.5 52.5t52.5 21.5h299l381 381q20 20 50 20t52.5 -21t22.5 -50v-1243q0 -31 -22.5 -52.5t-52.5 -21.5t-50 20l-381 381h-299q-31 0 -52.5 21.5t-21.5 52.5zM1038 530q0 25 13.5 41.5t33 28.5t39 26.5t32.5 40t13 64.5t-13 65.5t-32.5 41t-39 25.5 t-33 28.5t-13.5 40.5q0 31 21.5 52.5t50.5 21.5q18 0 29 -7q80 -31 129 -105.5t49 -161.5t-49 -161.5t-129 -107.5q-10 -6 -29 -6q-29 0 -50.5 21.5t-21.5 51.5zM1153 260q0 45 43 68q66 33 88 51q84 61 131 154.5t47 198t-47 197.5t-131 156q-23 16 -88 50q-43 23 -43 67 q0 31 21.5 52.5t50.5 21.5q14 0 30 -6q160 -68 257.5 -215.5t97.5 -322.5t-97.5 -323t-257.5 -216q-16 -4 -28 -5q-31 0 -52.5 21.5t-21.5 50.5zM1268 -8q0 41 45 67q8 4 25.5 12.5t25.5 12.5q51 29 92 57q141 104 220 260t79 331t-79 330t-220 259q-41 31 -92 59 q-8 4 -25.5 11.5t-25.5 11.5q-45 27 -45 67q0 31 21.5 52.5t51.5 21.5q14 0 29 -6q242 -104 387.5 -324.5t145.5 -482.5t-145.5 -482.5t-387.5 -324.5q-14 -6 -29 -6q-31 0 -52 22.5t-21 51.5z" />
<glyph unicode="&#xf029;" horiz-adv-x="1609" d="M0 0v731h731v-731h-731zM0 879v731h731v-731h-731zM145 147h441v439h-441v-439zM145 1024h441v438h-441v-438zM293 293v145h145v-145h-145zM293 1169v148h145v-148h-145zM879 0v731h438v-145h145v145h148v-438h-441v145h-145v-438h-145zM879 879v731h731v-731h-731z M1024 1024h438v438h-438v-438zM1169 0v145h148v-145h-148zM1169 1169v148h148v-148h-148zM1462 0v145h148v-145h-148z" />
<glyph unicode="&#xf02a;" horiz-adv-x="2048" d="M0 0v1610h72v-1610h-72zM106 2v1608h37v-1608h-37zM215 2v1608h37v-1608h-37zM395 2v1608h35v-1608h-35zM539 2v1608h71v-1608h-71zM719 2v1608h35v-1608h-35zM791 2v1608h34v-1608h-34zM862 2v1608h37v-1608h-37zM1006 2v1608h71v-1608h-71zM1186 2v1608h71v-1608h-71z M1329 2v1608h72v-1608h-72zM1473 2v1608h71v-1608h-71zM1581 2v1608h72v-1608h-72zM1761 2v1608h107v-1608h-107zM1905 2v1608h37v-1608h-37zM1976 0v1610h72v-1610h-72z" />
<glyph unicode="&#xf02b;" d="M0 987v475q0 59 43 103.5t102 44.5h478q59 0 132.5 -31t116.5 -74l818 -817q41 -43 41 -102q0 -61 -41 -105l-562 -561q-45 -43 -104 -43q-61 0 -102 43l-818 817q-43 43 -73.5 117t-30.5 133zM219 1244.5q0 -60.5 43 -103.5t103.5 -43t103.5 43t43 103.5t-43 103.5 t-103.5 43t-103.5 -43t-43 -103.5z" />
<glyph unicode="&#xf02c;" horiz-adv-x="2193" d="M0 987v475q0 59 43 103.5t102 44.5h478q59 0 132.5 -31t116.5 -74l818 -817q41 -43 41 -102q0 -61 -41 -105l-562 -561q-45 -43 -104 -43q-61 0 -102 43l-818 817q-43 43 -73.5 117t-30.5 133zM219 1244.5q0 -60.5 43 -103.5t103.5 -43t103.5 43t43 103.5t-43 103.5 t-103.5 43t-103.5 -43t-43 -103.5zM805 1610h256q59 0 133 -31t117 -74l817 -817q43 -43 43 -102q0 -61 -43 -105l-561 -561q-45 -43 -105 -43q-41 0 -66.5 16.5t-60.5 51.5l537 536q43 43 43 105q0 59 -43 102l-817 817q-43 43 -117 74t-133 31z" />
<glyph unicode="&#xf02d;" horiz-adv-x="1902" d="M12 211q0 4 3 30.5t3 41.5q2 10 -2 25.5t-4 21.5q2 12 9.5 24.5t19.5 27.5t18 26q27 43 51.5 104t34.5 104q4 12 1 35t-1 33q4 12 19.5 31.5t19.5 25.5q25 41 48.5 105.5t27.5 103.5q2 10 -2 36t0 32q4 14 24.5 34.5l26.5 26.5q20 29 48 96.5t32 110.5q0 8 -4 28.5 t-2 31.5q2 8 10 19t20.5 26.5t18.5 23.5q10 14 19.5 36t17.5 40t18.5 40.5t21.5 37t30.5 27t42 13.5t53.5 -7v-3q43 10 57 11h871q84 0 130 -64.5t19 -148.5l-311 -1037q-41 -135 -82 -175t-148 -40h-993q-31 0 -43 -16q-12 -18 -2 -49q29 -80 166 -80h1055q33 0 63.5 17.5 t38.5 48.5l344 1128q8 25 6 63q43 -16 68 -49q45 -63 20 -147l-315 -1034q-20 -74 -87 -123t-140 -49h-1055q-88 0 -170 60t-113 151q-29 76 -2 145zM563 913q-6 -14 1 -24t24 -10h694q14 0 28.5 10t20.5 24l23 74q6 14 -1 25.5t-24 11.5h-694q-16 0 -29.5 -11.5 t-19.5 -25.5zM657 1206q-4 -14 2.5 -25.5t22.5 -11.5h694q16 0 30.5 11.5t18.5 25.5l25 74q4 14 -3 25.5t-24 11.5h-694q-14 0 -28.5 -11.5t-18.5 -25.5z" />
<glyph unicode="&#xf02e;" horiz-adv-x="1462" d="M0 8v1473q0 39 22.5 70.5t59.5 47.5q25 10 51 11h1198q25 0 49 -11q39 -16 60.5 -47.5t21.5 -70.5v-1473q0 -39 -21.5 -70.5t-60.5 -48.5q-20 -8 -49 -8q-55 0 -96 37l-504 483l-504 -483q-41 -39 -94 -39q-27 0 -51 10q-37 16 -59.5 48t-22.5 71z" />
<glyph unicode="&#xf02f;" horiz-adv-x="1902" d="M0 182v475q0 92 64.5 157t154.5 65h74v620q0 45 31.5 78t76.5 33h768q47 0 101.5 -23.5t87.5 -54.5l174 -174q31 -33 54.5 -87t23.5 -102v-290h71q92 0 157 -65t65 -157v-475q0 -14 -11.5 -25.5t-25.5 -11.5h-256v-182q0 -45 -33 -76.5t-78 -31.5h-1098q-45 0 -76.5 31.5 t-31.5 76.5v182h-256q-14 0 -25.5 11.5t-11.5 25.5zM438 0h1024v293h-1024v-293zM438 731h1024v438h-182q-45 0 -78 33t-33 78v182h-731v-731zM1610 658.5q0 -29.5 21.5 -51t51.5 -21.5t50 20q23 23 22.5 52.5t-22 51t-51 21.5t-51 -21.5t-21.5 -51z" />
<glyph unicode="&#xf030;" horiz-adv-x="2193" d="M0 145v1024q0 123 86 208t207 85h256l57 156q23 57 80 97t119 40h586q59 0 117.5 -40t78.5 -97l60 -156h256q121 0 205.5 -85t84.5 -208v-1024q0 -121 -85 -205.5t-205 -84.5h-1610q-121 0 -207 85t-86 205zM585.5 658.5q-0.5 -211.5 149.5 -363.5q150 -150 362 -150 t362.5 150.5t150.5 362.5t-150.5 361.5t-362.5 149.5t-361.5 -149.5t-150 -361zM768 658.5q0 136.5 96 232.5t232.5 96t232.5 -96t96 -232.5t-96 -232.5t-232 -96t-232.5 96t-96.5 232.5z" />
<glyph unicode="&#xf031;" horiz-adv-x="1902" d="M0 -145l2 90q25 8 92 20q100 18 125 35q23 18 55 78l271 704l319 828h86h62l12 -25l233 -549q119 -276 144 -340q43 -117 108 -268q31 -66 74 -186q29 -78 76 -170q25 -57 39 -66q27 -23 80 -26q53 -6 116 -31q8 -45 9 -66q0 -16 -2 -28q-92 0 -220 8q-106 8 -217 8 q-90 0 -153 -2l-230 -12l-65 -2q0 51 4 90l149 30q66 16 78 27q14 14 14.5 31.5t-6.5 36.5l-55 131l-104 260l-514 2q-33 -74 -119 -313q-27 -74 -27 -97q0 -35 21 -49q29 -23 116 -37q4 0 16.5 -2t34 -5t46.5 -7q2 -33 2 -66q0 -20 -4 -30q-74 0 -398 22l-55 -10 q-92 -14 -190 -14h-25zM635 602q82 0 174 -2t136 -2h61l32 2q-37 109 -104 274q-62 152 -105 242z" />
<glyph unicode="&#xf032;" horiz-adv-x="1609" d="M0 -145l2 106q51 10 78 14q88 12 141 35q18 31 23 58q10 76 10 223l-2 567q-4 293 -10 463q0 98 -13 123q0 6 -14 14q-20 14 -78 17q-35 4 -131 16l-4 94l297 6l434 17h51q6 0 16.5 1t16.5 1q2 0 24.5 -1t47.5 -1h84q100 0 217 -31q49 -14 110 -45q66 -33 117 -86 t75 -118.5t24 -139.5q0 -80 -37 -146.5t-109 -119.5q-29 -23 -172 -88q203 -47 305 -168q106 -121 107 -269q0 -88 -33 -184q-25 -72 -82 -133q-76 -84 -160 -125t-231 -68q-94 -18 -227 -12l-226 4q-96 2 -340 -12q-39 -4 -311 -12zM608 1477q0 -51 4 -88q6 -139 6 -320 l-2 -111q0 -49 2 -88q49 -8 125 -8q199 0 301.5 74t102.5 256q0 129 -98 213q-96 86 -291 86q-59 0 -150 -14zM616 377l5 -309q0 -17 14 -52q86 -35 160 -34q150 0 247 46t138 128q45 82 45 206q0 131 -47 207q-68 106 -162 144q-92 37 -283 37q-84 0 -115 -13v-164z" />
<glyph unicode="&#xf033;" horiz-adv-x="1169" d="M0 -143l18 96q6 2 88 22q88 23 134 45q33 43 47 115l30 160l64 307l14 72q10 51 20.5 97t17.5 77t14.5 53.5t10.5 34.5l3 12l35 180l18 72l25 154l8 57v43q-47 27 -164 33q-33 2 -43 4l20 119l363 -17q45 -2 84 -2q76 0 244 11q39 2 79 5l39 3q-2 -23 -6 -43 q-8 -35 -14 -60q-63 -23 -125 -34q-74 -18 -115 -37q-14 -35 -28 -101q-10 -49 -15 -92q-51 -227 -75 -350l-70 -356l-43 -181l-49 -268l-15 -51q-2 -8 2 -31q72 -18 136 -24q41 -6 75 -13q-2 -33 -8 -65q-8 -35 -10 -47h-27q-27 -2 -47 -2q-10 0 -33 2q-20 4 -165 20 l-226 2q-47 0 -198 -12q-86 -8 -113 -10z" />
<glyph unicode="&#xf034;" horiz-adv-x="2048" d="M0 1169v340v99h92l62 -31q23 -6 241 -6h150l20 4l131 2l246 -2h336l39 -2q16 -2 31.5 7t23.5 19l8 9l50 2q16 0 30 -2v-119t2 -152v-112v-68q0 -37 -6 -57q-43 -18 -76 -21q-29 49 -63 146q-8 29 -16.5 72.5t-13.5 74.5t-7 33q-14 16 -31 20q-8 4 -49 4.5t-117.5 -2 t-126.5 -2.5q-39 0 -77 -4q-10 -111 -9 -155v-174v-379l4 -412l-2 -168q0 -51 13 -96q57 -29 102 -37q2 0 20.5 -6t50.5 -15.5t50 -13.5q33 -8 57 -20q4 -51 4 -58q0 -10 -2 -32h-39q-127 0 -215 10q-82 10 -270 10q-100 0 -266 -16q-55 -4 -80 -4q-4 25 -4 28v31v10 q25 37 90 56q160 43 182 57q10 25 13 63q10 219 8 496l-6 489q-2 70 -1 134.5t1 118t-2.5 65.5t-8.5 16q-6 6 -14 6q-45 8 -170 9q-49 0 -114.5 -15.5t-82.5 -27.5q-16 -10 -26 -38t-24.5 -86.5t-26.5 -97.5q-8 -20 -23.5 -35.5t-24.5 -15.5q-49 31 -63 51zM1615.5 125 q10.5 20 49.5 20h90v1172h-90q-39 0 -49 21.5t12 50.5l146 184q23 31 55.5 31t54.5 -31l146 -184q23 -29 12.5 -50.5t-49.5 -21.5h-90v-1172h90q39 0 49 -20.5t-12 -50.5l-146 -185q-23 -31 -55.5 -30.5t-54.5 30.5l-146 185q-23 31 -12.5 51z" />
<glyph unicode="&#xf035;" d="M0 1169v340v99h92l62 -31q23 -6 241 -6h150l20 4l131 2l510 -2h365l39 -2q16 -2 31.5 7t23.5 19l8 9l47 2q18 0 33 -2v-119t2 -152v-112v-68q0 -37 -6 -57q-43 -18 -78 -21q-29 49 -61 146q-8 29 -17.5 72.5t-13.5 74.5t-6 33q-14 16 -31 20q-8 4 -67.5 4.5t-158.5 -2 t-147 -2.5q-106 0 -143 -4q-12 -111 -10 -155l2 -174v59l2 -410v-168q-2 -53 12 -98q55 -29 103 -37q2 0 20.5 -5t50 -14t47.5 -13q35 -10 58 -21q6 -53 6 -57q0 -12 -4 -35h-39q-125 0 -213 10q-82 10 -273 10q-94 0 -266 -14q-51 -6 -80 -6q-2 25 -2 29l-2 30v10 q25 37 90 56q160 43 183 57q10 25 14 64q6 158 6 495l-6 51q0 301 -2 318q-2 12 -6 16q-6 6 -17 6q-43 8 -170 9q-55 0 -191 -16.5t-151 -26.5q-16 -10 -26 -38t-24.5 -86.5t-26.5 -97.5q-8 -20 -23.5 -35.5t-24.5 -15.5q-49 31 -63 51zM6 73.5q0 32.5 29 55.5l186 143 q29 25 50.5 13.5t21.5 -47.5v-93h1169v93q0 37 21.5 48t50.5 -14l186 -143q29 -23 29 -55.5t-29 -57.5l-186 -143q-29 -23 -50.5 -12.5t-21.5 47.5v92h-1169v-92q0 -37 -21.5 -47.5t-50.5 12.5l-186 143q-29 25 -29 57.5z" />
<glyph unicode="&#xf036;" horiz-adv-x="2048" d="M0 74v145q0 31 21.5 52.5t52.5 21.5h1900q31 0 52.5 -21.5t21.5 -52.5v-145q0 -31 -21.5 -52.5t-52.5 -21.5h-1900q-31 0 -52.5 21.5t-21.5 52.5zM0 512v145q0 31 21.5 52.5t52.5 21.5h1462q31 0 52.5 -21.5t21.5 -52.5v-145q0 -31 -21.5 -52.5t-52.5 -21.5h-1462 q-31 0 -52.5 21.5t-21.5 52.5zM0 950v148q0 29 21.5 50t52.5 21h1755q29 0 51.5 -21t22.5 -50v-148q0 -29 -22.5 -50t-51.5 -21h-1755q-31 0 -52.5 21.5t-21.5 49.5zM0 1391v145q0 31 21.5 52.5t52.5 21.5h1317q29 0 50 -21.5t21 -52.5v-145q0 -31 -21.5 -52.5t-49.5 -21.5 h-1317q-31 0 -52.5 21.5t-21.5 52.5z" />
<glyph unicode="&#xf037;" horiz-adv-x="2048" d="M0 74v145q0 31 21.5 52.5t52.5 21.5h1900q31 0 52.5 -21.5t21.5 -52.5v-145q0 -31 -21.5 -52.5t-52.5 -21.5h-1900q-31 0 -52.5 21.5t-21.5 52.5zM145 950v148q0 29 22.5 50t51.5 21h1610q29 0 51.5 -21t22.5 -50v-148q0 -29 -22.5 -50t-51.5 -21h-1610q-29 0 -51.5 21.5 t-22.5 49.5zM438 512v145q0 31 21.5 52.5t52.5 21.5h1024q31 0 52.5 -21.5t21.5 -52.5v-145q0 -31 -21.5 -52.5t-52.5 -21.5h-1024q-31 0 -52.5 21.5t-21.5 52.5zM586 1391v145q0 31 21.5 52.5t49.5 21.5h734q29 0 50 -21.5t21 -52.5v-145q0 -31 -21.5 -52.5t-49.5 -21.5 h-734q-29 0 -50 21.5t-21 52.5z" />
<glyph unicode="&#xf038;" horiz-adv-x="2048" d="M0 74v145q0 31 21.5 52.5t52.5 21.5h1900q31 0 52.5 -21.5t21.5 -52.5v-145q0 -31 -21.5 -52.5t-52.5 -21.5h-1900q-31 0 -52.5 21.5t-21.5 52.5zM145 950v148q0 29 22.5 50t51.5 21h1755q31 0 52.5 -21t21.5 -50v-148q0 -29 -21.5 -50t-52.5 -21h-1755q-29 0 -51.5 21.5 t-22.5 49.5zM438 512v145q0 31 21.5 52.5t52.5 21.5h1462q31 0 52.5 -21.5t21.5 -52.5v-145q0 -31 -21.5 -52.5t-52.5 -21.5h-1462q-31 0 -52.5 21.5t-21.5 52.5zM586 1391v145q0 31 21.5 52.5t49.5 21.5h1317q31 0 52.5 -21.5t21.5 -52.5v-145q0 -31 -21.5 -52.5 t-52.5 -21.5h-1317q-29 0 -50 21.5t-21 52.5z" />
<glyph unicode="&#xf039;" horiz-adv-x="2048" d="M0 74v145q0 31 21.5 52.5t52.5 21.5h1900q31 0 52.5 -21.5t21.5 -52.5v-145q0 -31 -21.5 -52.5t-52.5 -21.5h-1900q-31 0 -52.5 21.5t-21.5 52.5zM0 512v145q0 31 21.5 52.5t52.5 21.5h1900q31 0 52.5 -21.5t21.5 -52.5v-145q0 -31 -21.5 -52.5t-52.5 -21.5h-1900 q-31 0 -52.5 21.5t-21.5 52.5zM0 950v148q0 29 21.5 50t52.5 21h1900q31 0 52.5 -21t21.5 -50v-148q0 -29 -21.5 -50t-52.5 -21h-1900q-31 0 -52.5 21.5t-21.5 49.5zM0 1391v145q0 31 21.5 52.5t52.5 21.5h1900q31 0 52.5 -21.5t21.5 -52.5v-145q0 -31 -21.5 -52.5 t-52.5 -21.5h-1900q-31 0 -52.5 21.5t-21.5 52.5z" />
<glyph unicode="&#xf03a;" horiz-adv-x="2048" d="M0 37v219q0 14 11.5 25.5t25.5 11.5h219q14 0 25.5 -11.5t11.5 -25.5v-219q0 -14 -11.5 -25.5t-25.5 -11.5h-219q-14 0 -25.5 11.5t-11.5 25.5zM0 475v219q0 16 11.5 26.5t25.5 10.5h219q14 0 25.5 -10.5t11.5 -26.5v-219q0 -14 -11.5 -25.5t-25.5 -11.5h-219 q-14 0 -25.5 11.5t-11.5 25.5zM0 913v222q0 14 11.5 24t25.5 10h219q14 0 25.5 -10t11.5 -24v-222q0 -14 -11.5 -24t-25.5 -10h-219q-14 0 -25.5 10t-11.5 24zM0 1354v219q0 14 11.5 25.5t25.5 11.5h219q14 0 25.5 -11.5t11.5 -25.5v-219q0 -16 -11.5 -26.5t-25.5 -10.5 h-219q-14 0 -25.5 10t-11.5 27zM438 37v219q0 14 11.5 25.5t25.5 11.5h1536q14 0 25.5 -11.5t11.5 -25.5v-219q0 -14 -11.5 -25.5t-25.5 -11.5h-1536q-14 0 -25.5 11.5t-11.5 25.5zM438 475v219q0 16 11.5 26.5t25.5 10.5h1536q14 0 25.5 -10.5t11.5 -26.5v-219 q0 -14 -11.5 -25.5t-25.5 -11.5h-1536q-14 0 -25.5 11.5t-11.5 25.5zM438 913v222q0 14 11.5 24t25.5 10h1536q14 0 25.5 -10t11.5 -24v-222q0 -14 -11.5 -24t-25.5 -10h-1536q-14 0 -25.5 10t-11.5 24zM438 1354v219q0 14 11.5 25.5t25.5 11.5h1536q14 0 25.5 -11.5 t11.5 -25.5v-219q0 -16 -11.5 -26.5t-25.5 -10.5h-1536q-14 0 -25.5 10t-11.5 27z" />
<glyph unicode="&#xf03b;" horiz-adv-x="1615" d="M0 37v219q0 16 10 26.5t27 10.5h1538q16 0 27.5 -10.5t11.5 -26.5v-219q0 -16 -11.5 -26.5t-27.5 -10.5h-1538q-16 0 -26.5 10t-10.5 27zM0 803q0 8 3 15t5 11l334 332q4 4 11.5 7t13.5 3q16 0 26 -12t10 -24v-664q0 -12 -10 -22.5t-26 -10.5t-25 6l-334 334 q-2 4 -5 11.5t-3 13.5zM0 1356v219q0 16 10 26.5t27 10.5h1538q16 0 27.5 -10.5t11.5 -26.5v-219q0 -16 -11.5 -26.5t-27.5 -10.5h-1538q-16 0 -26.5 10t-10.5 27zM598 479v217q0 16 10 27.5t27 11.5h940q16 0 27.5 -11t11.5 -28v-217q0 -16 -11.5 -28.5t-27.5 -12.5h-940 q-16 0 -26.5 12.5t-10.5 28.5zM598 913v226q0 12 9 22t22 10h946q16 0 27.5 -10t11.5 -22v-226q0 -12 -11.5 -24t-27.5 -12h-946q-12 0 -21.5 12t-9.5 24z" />
<glyph unicode="&#xf03c;" horiz-adv-x="1613" d="M0 37v219q0 16 10 26.5t27 10.5h1538q16 0 27.5 -10.5t11.5 -26.5v-219q0 -16 -11.5 -26.5t-27.5 -10.5h-1538q-16 0 -26.5 10t-10.5 27zM0 475v664q0 12 10 22t27 10q14 0 24 -6l334 -334q2 -4 5 -11t3 -13q0 -8 -3 -15.5t-5 -11.5l-334 -331q-4 -4 -11 -7.5t-13 -3.5 q-16 0 -26.5 12.5t-10.5 24.5zM0 1356v219q0 16 10 26.5t27 10.5h1538q16 0 27.5 -10.5t11.5 -26.5v-219q0 -16 -11.5 -26.5t-27.5 -10.5h-1538q-16 0 -26.5 10t-10.5 27zM598 479v217q0 16 10 27.5t27 11.5h940q16 0 27.5 -11t11.5 -28v-217q0 -16 -11.5 -28.5t-27.5 -12.5 h-940q-16 0 -26.5 12.5t-10.5 28.5zM598 913v226q0 12 9 22t22 10h946q16 0 27.5 -10t11.5 -22v-226q0 -12 -11.5 -24t-27.5 -12h-946q-12 0 -21.5 12t-9.5 24z" />
<glyph unicode="&#xf03d;" horiz-adv-x="2048" d="M0 330v805q0 135 96.5 231t233.5 96h805q135 0 231 -96t96 -231v-191l461 461q20 20 51 20q14 0 29 -4q45 -20 45 -67v-1243q0 -49 -45 -68q-14 -6 -29 -6q-31 0 -51 20l-461 461v-188q0 -137 -96 -233.5t-231 -96.5h-805q-137 0 -233.5 96.5t-96.5 233.5z" />
<glyph unicode="&#xf03e;" horiz-adv-x="2193" d="M0 37v1388q0 76 53 130.5t129 54.5h1829q76 0 129 -54.5t53 -130.5v-1388q0 -76 -53 -129t-129 -53h-1829q-76 0 -129 53t-53 129zM145 37q0 -14 11.5 -25.5t25.5 -11.5h1829q14 0 25.5 11.5t11.5 25.5v1388q0 16 -11.5 26.5t-25.5 10.5h-1829q-14 0 -25.5 -10t-11.5 -27 v-1388zM293 145v222l364 364l185 -182l583 586l478 -478v-512h-1610zM293 1097q0 91 63.5 155.5t156 64.5t155.5 -66q63 -63 63 -154t-63.5 -154.5t-155.5 -63.5t-155.5 63.5t-63.5 154.5z" />
<glyph unicode="&#xf040;" d="M0 -145v475l950 950l475 -475l-950 -950h-475zM145 145h148v-145h123l102 104l-268 269l-105 -105v-123zM340 438q0 -25 27 -24q10 0 18 8l621 618q6 9 6 21q0 25 -25 24q-10 0 -18 -8l-621 -618q-8 -8 -8 -21zM1024 1354l190 188q41 43 103 43q59 0 104 -43l269 -268 q41 -46 41 -105t-41 -102l-191 -188z" />
<glyph unicode="&#xf041;" horiz-adv-x="1200" d="M0 1008q0 125 47 234.5t128 191.5t190.5 129t234.5 47t234.5 -47t190.5 -129t128 -191.5t47 -234.5q0 -35 -8 -75t-21.5 -80t-30 -80t-34.5 -77q-41 -84 -94 -168l-434 -694l-412 703q-47 90 -84 174q-31 72 -56.5 152.5t-25.5 144.5zM254 1026q0 -72 26.5 -135.5 t72.5 -110.5t108.5 -73.5t134.5 -26.5q74 0 136.5 26.5t109.5 73.5t73.5 110.5t26.5 135.5t-26.5 134.5t-73.5 108.5t-109.5 72.5t-136.5 26.5q-72 0 -134.5 -26.5t-108.5 -72.5t-72.5 -108.5t-26.5 -134.5z" />
<glyph unicode="&#xf042;" d="M0 732.5q0 238.5 118 440t319.5 319.5t440 118t440 -118t318.5 -321q119 -201 119 -439t-117.5 -440t-319.5 -319.5t-440.5 -117.5t-440 117.5t-319.5 319.5t-118 440.5zM256 732q0 -169 83 -312.5t226.5 -226t313.5 -82.5v1243q-170 0 -313.5 -84t-226.5 -226.5 t-83 -311.5z" />
<glyph unicode="&#xf043;" horiz-adv-x="1169" d="M0 586q0 166 92 313q8 10 72.5 103.5t115 173t114 203.5t93.5 231q10 33 39 52t58.5 19t59.5 -19.5t38 -51.5q33 -106 95.5 -230.5t113.5 -204t115.5 -173t70.5 -103.5q92 -145 92 -313q0 -244 -171 -415t-413.5 -171t-413.5 171t-171 415zM293 438q0 -59 43 -102 t103.5 -43t103.5 43t43 102q0 41 -23 80q-2 0 -18.5 24.5t-28.5 44t-28.5 50.5t-24.5 57q-4 18 -23.5 18.5t-23.5 -18.5q-8 -27 -24.5 -57.5t-29 -50t-29 -44t-18.5 -24.5q-23 -39 -22 -80z" />
<glyph unicode="&#xf044;" horiz-adv-x="2048" d="M0 330v950q0 135 96.5 232.5t233.5 97.5h950q72 0 133 -29q18 -8 21 -27q4 -20 -11 -32l-55 -58q-16 -14 -37 -8q-27 6 -51 6h-950q-76 0 -130.5 -53t-54.5 -129v-950q0 -76 54.5 -130.5t130.5 -54.5h950q76 0 129 54.5t53 130.5v143q0 14 11 25l73 73q16 16 40 7.5 t24 -31.5v-217q0 -137 -97.5 -233.5t-232.5 -96.5h-950q-137 0 -233.5 96.5t-96.5 233.5zM731 293v330l768 768l330 -330l-768 -768h-330zM842 512h108v-111h66l131 134l-174 174l-131 -134v-63zM1079 823q-18 -18 0.5 -36.5t36.5 -0.5l402 402q18 18 -0.5 36.5t-36.5 0.5z M1573 1462l104 107q33 31 78 30.5t78 -30.5l174 -174q33 -33 33 -78t-33 -78l-104 -104z" />
<glyph unicode="&#xf045;" horiz-adv-x="1744" d="M0 137v1290q0 59 39 98.5t96 39.5h506q-125 -49 -209 -138h-297v-1290h1292v654q20 10 31 28l105 101v-783q0 -59 -38 -98t-98 -39h-1292q-57 0 -96 39t-39 98zM408 954q0 63 8 129t34.5 127.5t73.5 115.5t124 94t188.5 62.5t267.5 22.5h156v183q0 16 9 31.5t25 21.5 q8 4 13.5 5t9.5 1q25 0 47 -18l362 -365q16 -20 16.5 -45t-16.5 -41l-362 -365q-23 -18 -47 -18q-4 0 -9 1t-14 5q-16 6 -25 21.5t-9 31.5v183h-156q-158 0 -258.5 -31t-155.5 -92q-59 -68 -76.5 -176.5t4.5 -274.5q4 -10 -2 -18t-16 -13q-4 0 -5 -2t-5 -2q-14 0 -27 13 q-2 4 -26.5 42t-53 97t-52 131t-23.5 143z" />
<glyph unicode="&#xf046;" horiz-adv-x="1902" d="M0 330v950q0 135 96.5 232.5t233.5 97.5h950q72 0 133 -29q18 -8 21 -27q4 -20 -11 -32l-55 -58q-12 -10 -27 -10q-4 0 -10 2q-27 6 -51 6h-950q-76 0 -130.5 -53t-54.5 -129v-950q0 -76 54.5 -130.5t130.5 -54.5h950q76 0 129 54.5t53 130.5v288q0 16 11 27l73 72 q12 12 27 12q6 0 14 -4q23 -8 23 -33v-362q0 -137 -97.5 -233.5t-232.5 -96.5h-950q-137 0 -233.5 96.5t-96.5 233.5zM293 877.5q0 37.5 29 64.5l124 127q29 27 66 27t66 -27l301 -301l739 739q27 27 64.5 27t64.5 -27l127 -125q27 -29 27 -66.5t-27 -64.5l-932 -929 q-27 -29 -64.5 -29t-64.5 29l-491 491q-29 27 -29 64.5z" />
<glyph unicode="&#xf047;" horiz-adv-x="2048" d="M0 732.5q0 29.5 23 49.5l290 293q23 23 52.5 23t51 -21.5t21.5 -52.5v-145h441v438h-148q-29 0 -51.5 21.5t-22.5 51t23 52.5l293 293q20 20 51 20t51 -20l293 -293q23 -23 23 -52.5t-22.5 -51t-51.5 -21.5h-148v-438h441v145q0 31 21.5 52.5t51 21.5t52.5 -23l290 -293 q23 -20 23 -49.5t-23 -52.5l-290 -293q-23 -20 -52.5 -20t-51 21.5t-21.5 49.5v148h-441v-441h148q29 0 51.5 -21.5t22.5 -51t-23 -49.5l-293 -293q-20 -23 -51 -23t-51 23l-293 293q-23 20 -23 49.5t22.5 51t51.5 21.5h148v441h-441v-148q0 -29 -21.5 -50t-51 -21t-52.5 20 l-290 293q-23 23 -23 52.5z" />
<glyph unicode="&#xf048;" horiz-adv-x="1169" d="M0 -74v1610q0 31 21.5 52.5t52.5 21.5h145q31 0 52.5 -21.5t21.5 -52.5v-774q4 12 14 20l811 811q23 23 37 16t14 -36v-1684q0 -29 -14 -36t-37 16l-811 811q-10 10 -14 22v-776q0 -29 -21.5 -50t-52.5 -21h-145q-31 0 -52.5 21.5t-21.5 49.5z" />
<glyph unicode="&#xf049;" horiz-adv-x="2048" d="M0 -74v1610q0 31 21.5 52.5t52.5 21.5h145q31 0 52.5 -21.5t21.5 -52.5v-774q4 12 14 20l811 811q23 23 37 16t14 -36v-811q6 12 17 20l811 811q20 23 35.5 16t15.5 -36v-1684q0 -29 -15.5 -36t-35.5 16l-811 811q-10 10 -17 22v-813q0 -29 -14 -36t-37 16l-811 811 q-10 10 -14 22v-776q0 -29 -21.5 -50t-52.5 -21h-145q-31 0 -52.5 21.5t-21.5 49.5z" />
<glyph unicode="&#xf04a;" horiz-adv-x="1902" d="M139 732.5q0 29.5 23 49.5l811 811q20 23 35.5 16t15.5 -36v-811q6 12 14 20l811 811q23 23 38.5 16t15.5 -36v-1684q0 -29 -15.5 -36t-38.5 16l-811 811q-8 10 -14 22v-813q0 -29 -15.5 -36t-35.5 16l-811 811q-23 23 -23 52.5z" />
<glyph unicode="&#xf04b;" horiz-adv-x="1609" d="M0 -111v1684q0 29 18.5 41t44.5 -4l1518 -844q27 -14 27 -35t-27 -35l-1518 -843q-27 -14 -45 -3t-18 39z" />
<glyph unicode="&#xf04c;" d="M0 -74v1610q0 31 21.5 52.5t52.5 21.5h583q31 0 52.5 -21.5t21.5 -52.5v-1610q0 -29 -21.5 -50t-52.5 -21h-583q-31 0 -52.5 21.5t-21.5 49.5zM1024 -74v1610q0 31 21.5 52.5t52.5 21.5h583q31 0 52.5 -21.5t21.5 -52.5v-1610q0 -29 -21.5 -50t-52.5 -21h-583 q-31 0 -52.5 21.5t-21.5 49.5z" />
<glyph unicode="&#xf04d;" d="M0 -74v1610q0 31 21.5 52.5t52.5 21.5h1607q31 0 52.5 -21.5t21.5 -52.5v-1610q0 -29 -21.5 -50t-52.5 -21h-1607q-31 0 -52.5 21.5t-21.5 49.5z" />
<glyph unicode="&#xf04e;" horiz-adv-x="1902" d="M0 -111v1684q0 29 15.5 36t35.5 -16l811 -811q10 -8 17 -20v811q0 29 14 36t37 -16l811 -811q20 -20 20 -50t-20 -52l-811 -811q-23 -23 -37 -15.5t-14 35.5v813q-6 -12 -17 -22l-811 -811q-20 -23 -35.5 -15.5t-15.5 35.5z" />
<glyph unicode="&#xf050;" horiz-adv-x="2048" d="M0 -111v1684q0 29 15.5 36t35.5 -16l811 -811q10 -8 17 -20v811q0 29 14 36t37 -16l811 -811q8 -8 14 -20v774q0 31 21.5 52.5t52.5 21.5h145q31 0 52.5 -21.5t21.5 -52.5v-1610q0 -29 -21.5 -50t-52.5 -21h-145q-31 0 -52.5 21.5t-21.5 49.5v776q-6 -12 -14 -22 l-811 -811q-23 -23 -37 -15.5t-14 35.5v813q-6 -12 -17 -22l-811 -811q-20 -23 -35.5 -15.5t-15.5 35.5z" />
<glyph unicode="&#xf051;" horiz-adv-x="1169" d="M0 -111v1684q0 29 15.5 36t35.5 -16l811 -811q10 -8 17 -20v774q0 31 21.5 52.5t49.5 21.5h148q29 0 50 -21.5t21 -52.5v-1610q0 -29 -21.5 -50t-49.5 -21h-148q-29 0 -50 21.5t-21 49.5v776q-6 -12 -17 -22l-811 -811q-20 -23 -35.5 -15.5t-15.5 35.5z" />
<glyph unicode="&#xf052;" horiz-adv-x="1757" d="M0.5 600q-7.5 14 15.5 37l811 811q23 23 52.5 22.5t50.5 -22.5l811 -811q23 -23 15.5 -37t-36.5 -14h-1683q-29 0 -36.5 14zM2 74v293q0 29 21.5 50t50.5 21h1609q29 0 51.5 -21.5t22.5 -49.5v-293q0 -31 -22.5 -52.5t-51.5 -21.5h-1609q-29 0 -50.5 21.5t-21.5 52.5z " />
<glyph unicode="&#xf053;" horiz-adv-x="1316" d="M61 804.5q0 61.5 41 104.5l746 744q43 43 103.5 43t103.5 -43l86 -86q43 -43 43 -103.5t-43 -103.5l-555 -555l555 -555q43 -43 43 -103.5t-43 -103.5l-86 -86q-43 -41 -103.5 -41t-103.5 41l-746 745q-41 41 -41 102.5z" />
<glyph unicode="&#xf054;" horiz-adv-x="1316" d="M133 145q0 61 43 105l555 555l-555 555q-43 43 -43 102q0 61 43 105l86 84q41 45 103.5 45t103.5 -45l745 -744q41 -43 41 -102t-41 -105l-745 -743q-43 -43 -103.5 -43t-103.5 43l-86 86q-43 43 -43 102z" />
<glyph unicode="&#xf055;" d="M0 732.5q0 238.5 118 440t319.5 319.5t440 118t440 -118t318.5 -321q119 -201 119 -439t-117.5 -440t-319.5 -319.5t-440.5 -117.5t-440 117.5t-319.5 319.5t-118 440.5zM367 657q0 -29 21.5 -50t49.5 -21h293v-293q0 -31 21.5 -52.5t52.5 -21.5h145q31 0 52.5 21.5 t21.5 52.5v293h293q29 0 51.5 21t22.5 50v148q0 29 -22.5 51.5t-51.5 22.5h-293v290q0 31 -21.5 52.5t-52.5 21.5h-145q-31 0 -52.5 -21.5t-21.5 -52.5v-290h-293q-29 0 -50 -22.5t-21 -51.5v-148z" />
<glyph unicode="&#xf056;" d="M0 732.5q0 238.5 118 440t319.5 319.5t440 118t440 -118t318.5 -321q119 -201 119 -439t-117.5 -440t-319.5 -319.5t-440.5 -117.5t-440 117.5t-319.5 319.5t-118 440.5zM367 657q0 -29 21.5 -50t49.5 -21h879q29 0 51.5 21t22.5 50v148q0 29 -22.5 51.5t-51.5 22.5h-879 q-29 0 -50 -22.5t-21 -51.5v-148z" />
<glyph unicode="&#xf057;" d="M0 732.5q0 238.5 118 440t319.5 319.5t440 118t440 -118t318.5 -321q119 -201 119 -439t-117.5 -440t-319.5 -319.5t-440.5 -117.5t-440 117.5t-319.5 319.5t-118 440.5zM442 473q0 -31 23 -53l102 -103q20 -20 51 -20t54 20l207 207l206 -207q20 -20 52 -20q31 0 51 20 l104 103q21 22 21 53t-21 51l-207 207l207 207q20 23 21 51q0 31 -21 53l-104 103q-20 23 -51 22q-31 0 -52 -22l-206 -207l-207 207q-23 23 -54 22q-31 0 -51 -22l-102 -103q-23 -23 -23 -53q0 -29 23 -51l207 -207l-207 -207q-23 -20 -23 -51z" />
<glyph unicode="&#xf058;" d="M0 732.5q0 238.5 118 440t319.5 319.5t440 118t440 -118t318.5 -321q119 -201 119 -439t-117.5 -440t-319.5 -319.5t-440.5 -117.5t-440 117.5t-319.5 319.5t-118 440.5zM289 711q0 -33 20 -54l414 -413q20 -20 51 -21q31 0 51 21l621 620q22 21 22 54q0 31 -22 51 l-103 102q-23 23 -52 23t-52 -23l-465 -465l-258 258q-23 23 -52.5 23t-51.5 -23l-103 -102q-20 -20 -20 -51z" />
<glyph unicode="&#xf059;" d="M0 732.5q0 238.5 118 440t319.5 319.5t440 118t440 -118t318.5 -321q119 -201 119 -439t-117.5 -440t-319.5 -319.5t-440.5 -117.5t-440 117.5t-319.5 319.5t-118 440.5zM477 1073q-18 -27 8 -47l152 -115q8 -8 20 -8q18 0 29 15q61 78 98 104q39 29 99 29q55 0 98 -30 t43 -69q0 -43 -22.5 -68.5t-77.5 -52.5q-72 -31 -132.5 -98t-60.5 -143v-41q0 -16 10.5 -26.5t26.5 -10.5h219q16 0 26.5 10t10.5 27q0 20 24.5 56t61.5 57q37 20 56.5 32.5t53 40t51 54t32 69.5t14.5 92q0 100 -63.5 186.5t-159 133.5t-193.5 47q-279 0 -424 -244zM731 182 q0 -16 10.5 -26.5t26.5 -10.5h219q16 0 26.5 10.5t10.5 26.5v219q0 16 -10 26.5t-27 10.5h-219q-16 0 -26.5 -10t-10.5 -27v-219z" />
<glyph unicode="&#xf05a;" d="M0 732.5q0 238.5 118 440t319.5 319.5t440 118t440 -118t318.5 -321q119 -201 119 -439t-117.5 -440t-319.5 -319.5t-440.5 -117.5t-440 117.5t-319.5 319.5t-118 440.5zM586 182q0 -16 10 -26.5t27 -10.5h512q14 0 24 10.5t10 26.5v185q0 14 -10 24t-24 10h-111v586 q0 16 -10 26.5t-27 10.5h-364q-16 0 -26.5 -10t-10.5 -27v-182q0 -16 10 -26.5t27 -10.5h108v-367h-108q-16 0 -26.5 -10t-10.5 -24v-185zM731 1206q0 -16 10.5 -26.5t26.5 -10.5h219q16 0 26.5 10.5t10.5 26.5v185q0 14 -10 24t-27 10h-219q-16 0 -26.5 -10t-10.5 -24v-185 z" />
<glyph unicode="&#xf05b;" d="M0 657v148q0 29 21.5 51.5t52.5 22.5h164q41 182 175 317t318 176v164q0 31 21.5 52.5t52.5 21.5h145q31 0 52.5 -21.5t21.5 -52.5v-164q184 -41 318.5 -176t177.5 -317h161q31 0 52.5 -22.5t21.5 -51.5v-148q0 -29 -21.5 -50t-52.5 -21h-161q-43 -184 -177.5 -318.5 t-318.5 -177.5v-164q0 -29 -21.5 -50t-52.5 -21h-145q-31 0 -52.5 21.5t-21.5 49.5v164q-184 43 -318 177t-175 319h-164q-31 0 -52.5 21.5t-21.5 49.5zM387 586q37 -125 129 -216t215 -128v125q0 29 21.5 50t52.5 21h145q31 0 52.5 -21.5t21.5 -49.5v-125q123 37 215 128 t129 216h-125q-29 0 -51.5 21.5t-22.5 49.5v148q0 29 22.5 51.5t51.5 22.5h125q-37 123 -129 215t-215 129v-125q0 -31 -21.5 -52.5t-52.5 -21.5h-145q-31 0 -52.5 21.5t-21.5 52.5v125q-123 -37 -215 -129.5t-129 -214.5h125q31 0 52.5 -22.5t21.5 -51.5v-148 q0 -29 -21.5 -50t-52.5 -21h-125z" />
<glyph unicode="&#xf05c;" d="M0 732.5q0 238.5 118 440t319.5 319.5t440 118t440 -118t318.5 -321q119 -201 119 -439t-117.5 -440t-319.5 -319.5t-440.5 -117.5t-440 117.5t-319.5 319.5t-118 440.5zM256 732q0 -169 83 -312.5t226.5 -226t312.5 -82.5t312 83t225 226q84 143 84 312t-83 311.5 t-226 226.5t-312 84t-312.5 -84t-226.5 -226.5t-83 -311.5zM489.5 548.5q-0.5 14.5 12.5 26.5l155 156l-155 158q-12 10 -12.5 25.5t12.5 25.5l166 168q12 10 27.5 10t25.5 -10l158 -158l155 158q12 10 26.5 10t26.5 -10l166 -168q12 -10 12.5 -25.5t-12.5 -25.5l-155 -158 l155 -156q12 -12 12 -26.5t-12 -26.5l-166 -166q-12 -12 -26 -12t-27 12l-155 156l-158 -156q-10 -12 -25.5 -12t-27.5 12l-166 166q-12 12 -12.5 26.5z" />
<glyph unicode="&#xf05d;" d="M0 732.5q0 238.5 118 440t319.5 319.5t440 118t440 -118t318.5 -321q119 -201 119 -439t-117.5 -440t-319.5 -319.5t-440.5 -117.5t-440 117.5t-319.5 319.5t-118 440.5zM256 732q0 -169 83 -312.5t226.5 -226t312.5 -82.5t312 83t225 226q84 143 84 312t-83 311.5 t-226 226.5t-312 84t-312.5 -84t-226.5 -226.5t-83 -311.5zM395 732.5q0 29.5 23 49.5l117 117q20 23 49.5 23t52.5 -23l168 -168l313 316q23 20 52.5 20t52.5 -20l114 -117q23 -23 23 -52.5t-23 -52.5l-481 -481q-23 -23 -52.5 -22.5t-49.5 22.5l-336 336q-23 23 -23 52.5z " />
<glyph unicode="&#xf05e;" d="M0 731q0 182 69.5 342t188.5 280t279 188.5t342 68.5t341.5 -68.5t279.5 -188.5t188.5 -280t68.5 -342t-68.5 -342t-188.5 -279.5t-279.5 -188t-341.5 -68.5t-342 68.5t-279 188t-188.5 279.5t-69.5 342zM127 731q0 -154 59.5 -290t162 -239.5t238.5 -162.5t292 -59 q137 0 262 48t223 134l-1057 1055q-84 -100 -132 -223.5t-48 -262.5zM395 1307l1057 -1061q82 100 128 223t46 262q0 156 -59.5 292t-160.5 237.5t-237.5 160t-289.5 58.5q-137 0 -261 -47.5t-223 -124.5z" />
<glyph unicode="&#xf060;" d="M74 657q0 59 41 105l745 743q43 43 103 43q59 0 104 -43l86 -84q43 -45 43 -105.5t-43 -103.5l-336 -333h805q59 0 96 -43.5t37 -104.5v-145q0 -61 -37 -104.5t-96 -43.5h-805l336 -336q43 -41 43 -102t-43 -102l-86 -88q-43 -41 -104 -41q-59 0 -103 41l-745 745 q-41 43 -41 102z" />
<glyph unicode="&#xf061;" d="M0 586v145q0 61 37 104.5t96 43.5h805l-334 335q-45 41 -45 102.5t45 102.5l84 86q45 43 105 43q59 0 104 -43l743 -743q41 -42 41 -105q0 -61 -41 -102l-743 -745q-45 -41 -104 -41t-105 41l-84 86q-45 43 -45 104t45 104l334 334h-805q-59 0 -96 43t-37 105z" />
<glyph unicode="&#xf062;" horiz-adv-x="1902" d="M61 645q0 61 43 105l744 743q41 43 102 43t105 -43l743 -743q43 -46 43 -105q0 -57 -43 -102l-86 -86q-43 -43 -102 -43q-61 0 -105 43l-336 336v-805q0 -59 -42 -96t-103 -37h-145q-61 0 -104.5 36.5t-43.5 96.5v805l-336 -336q-41 -43 -102.5 -43t-102.5 43l-86 86 q-43 43 -43 102z" />
<glyph unicode="&#xf063;" horiz-adv-x="1902" d="M61 805q0 59 43 104l84 84q45 43 105 43q59 0 102 -43l336 -336v805q0 59 44 103.5t104 44.5h145q59 0 102 -44t43 -104v-805l336 336q43 43 105 43q59 0 102 -43l86 -84q43 -45 43 -104q0 -61 -43 -103l-743 -745q-45 -43 -105 -43q-59 0 -102 43l-744 745 q-43 41 -43 103z" />
<glyph unicode="&#xf064;" horiz-adv-x="2048" d="M0 475q0 227 61 381q184 461 1000 461h256v293q0 29 21.5 50t51 21t52.5 -20l583 -586q23 -20 23 -51t-23 -51l-583 -586q-23 -20 -52.5 -20t-51 21.5t-21.5 49.5v293h-256q-113 0 -201 -7t-176 -24.5t-152.5 -48t-120 -79t-91 -116t-56 -158.5t-20.5 -206q0 -63 6 -141 q0 -6 3 -26.5t3 -30.5q0 -16 -9 -27.5t-28 -11.5q-18 0 -31 18q-8 10 -15 25.5t-15 35t-13 25.5q-145 328 -145 516z" />
<glyph unicode="&#xf065;" d="M0 -74v512q0 31 21.5 52.5t51 21.5t52.5 -23l164 -163l379 379q12 12 27.5 12t25.5 -12l131 -130q10 -12 10 -26.5t-10 -26.5l-381 -379l166 -166q20 -20 20 -49.5t-21.5 -51t-49.5 -21.5h-512q-31 0 -52.5 21.5t-21.5 49.5zM893 914.5q0 15.5 10 25.5l381 381l-166 164 q-20 20 -20 51t21.5 52.5t49.5 21.5h512q31 0 52.5 -21.5t21.5 -52.5v-512q0 -31 -21.5 -52.5t-51 -21.5t-52.5 23l-164 164l-379 -379q-12 -12 -26 -12.5t-27 12.5l-131 131q-10 10 -10 25.5z" />
<glyph unicode="&#xf066;" d="M14.5 36.5q-0.5 14.5 12.5 26.5l379 379l-164 164q-23 23 -23 52.5t21.5 51t52.5 21.5h512q29 0 51.5 -21.5t22.5 -52.5v-512q0 -29 -22.5 -50t-52.5 -21t-50 20l-166 166l-379 -381q-10 -10 -25.5 -10t-27.5 10l-129 131q-12 12 -12.5 26.5zM879 805v512q0 29 21.5 51.5 t51 22.5t49.5 -23l166 -164l379 379q12 10 26.5 10t26.5 -10l130 -131q12 -10 12 -25.5t-12 -25.5l-379 -381l163 -164q23 -23 23 -52.5t-21.5 -51t-52.5 -21.5h-512q-29 0 -50 21.5t-21 52.5z" />
<glyph unicode="&#xf067;" horiz-adv-x="1609" d="M0 694v219q0 47 31.5 79t79.5 32h475v475q0 45 31.5 78t76.5 33h219q47 0 79 -33t32 -78v-475h475q45 0 78 -32t33 -79v-219q0 -45 -33 -76.5t-78 -31.5h-475v-475q0 -47 -31.5 -79t-79.5 -32h-219q-45 0 -76.5 31.5t-31.5 79.5v475h-475q-47 0 -79 31.5t-32 76.5z" />
<glyph unicode="&#xf068;" horiz-adv-x="1609" d="M0 694v219q0 47 31.5 79t79.5 32h1388q45 0 78 -32t33 -79v-219q0 -45 -33 -76.5t-78 -31.5h-1388q-47 0 -79 31.5t-32 76.5z" />
<glyph unicode="&#xf069;" horiz-adv-x="1902" d="M140.5 466.5q15.5 59.5 68.5 88.5l303 176l-303 176q-53 31 -68.5 89.5t13.5 111.5l73 125q31 53 89.5 68.5t111.5 -15.5l303 -174v350q0 59 44 103.5t104 44.5h145q59 0 102 -44t43 -104v-350l306 174q53 31 111.5 15.5t88.5 -68.5l72 -125q31 -53 15.5 -111.5 t-68.5 -89.5l-303 -176l303 -176q53 -29 68.5 -88t-15.5 -111l-72 -127q-31 -53 -89 -68.5t-111 15.5l-306 174v-350q0 -59 -43 -102t-102 -43h-145q-59 0 -103.5 43t-44.5 102v350l-303 -174q-53 -31 -111.5 -15.5t-89.5 68.5l-73 127q-29 51 -13.5 110.5z" />
<glyph unicode="&#xf06a;" d="M0 732.5q0 238.5 117.5 440t318.5 318.5q203 119 441.5 119t440.5 -118t319.5 -319.5t117.5 -440t-117.5 -440.5t-319.5 -319.5t-440.5 -117.5t-440 117.5t-319.5 319.5t-118 440.5zM713 1286l20 -708q0 -12 11.5 -20.5t27.5 -8.5h211q16 0 26.5 8.5t12.5 20.5l20 708 q0 14 -12 21q-10 10 -26 10h-252q-16 0 -27 -10q-12 -6 -12 -21zM731 184q0 -14 11.5 -26.5t27.5 -12.5h219q14 0 24.5 11.5t10.5 27.5v217q0 16 -10 26.5t-25 10.5h-219q-16 0 -27.5 -11t-11.5 -26v-217z" />
<glyph unicode="&#xf06b;" d="M0 623v364q0 16 10 26.5t27 10.5h502q-106 0 -181 75t-75 181t74.5 181t181.5 75q123 0 192 -88l148 -188l145 188q70 88 193 88q106 0 181 -75t75 -181t-75 -181t-181 -75h501q16 0 26.5 -10.5t10.5 -26.5v-364q0 -16 -10 -26.5t-27 -10.5h-108v-475q0 -47 -33 -79 t-78 -32h-1243q-45 0 -78 31.5t-33 79.5v475h-108q-16 0 -26.5 10t-10.5 27zM430 1280q0 -45 32 -78t77 -33h223l-144 185q-31 37 -79 37q-45 0 -77 -33t-32 -78zM694 205q0 -29 20.5 -44.5t53.5 -15.5h219q33 0 53.5 15.5t20.5 44.5v65v535v219h-367v-219v-535v-65z M993 1169h224q45 0 76.5 33t31.5 78t-31.5 78t-76.5 33q-49 0 -80 -37z" />
<glyph unicode="&#xf06c;" horiz-adv-x="2048" d="M0 139q0 39 36 83t78 75t76.5 64.5t34.5 54.5q0 4 -15 43t-17 51q-10 57 -11 119q0 131 49.5 250.5t136.5 211t195.5 159t231.5 110.5q63 20 166.5 28.5t205 10.5t204 7t187 26.5t130.5 64.5q10 12 32.5 33.5t33.5 32t30.5 23.5t42 18.5t49.5 5.5q45 0 81 -53.5 t54.5 -128t27.5 -141t9 -109.5q0 -109 -23 -222q-53 -256 -210.5 -437t-409.5 -306q-244 -123 -500 -123q-170 0 -327 53q-16 6 -99.5 48t-109.5 42q-18 0 -45 -36.5t-51.5 -79.5t-60.5 -80t-69 -37q-35 0 -58.5 12.5t-35.5 27.5t-31 48q-2 4 -7 12.5t-6 11.5t-3 11t-2 16z M438 512q0 -31 21.5 -52.5t52.5 -21.5q27 0 51 23q31 27 85 81t77 74q156 143 306.5 203t359.5 60q29 0 50 21.5t21 51t-21 51t-50 21.5q-197 0 -364 -56.5t-297 -153.5t-269 -251q-23 -25 -23 -51z" />
<glyph unicode="&#xf06d;" horiz-adv-x="1609" d="M0 -182q0 14 11.5 25.5t25.5 11.5h1536q14 0 25.5 -11.5t11.5 -25.5v-74q0 -14 -11.5 -25.5t-25.5 -11.5h-1536q-14 0 -25.5 11.5t-11.5 25.5v74zM293 731q0 90 27.5 165t72.5 128t100.5 101.5t109.5 89t100.5 81.5t74 93.5t27.5 109.5q0 109 -76 256h4h-2 q102 -47 182 -95t159 -113.5t130 -139.5t83 -172t32 -211q0 -90 -27.5 -165t-74 -128t-100.5 -100t-109.5 -89t-100.5 -83t-72.5 -93.5t-27.5 -109.5q0 -111 76 -256l-4 2l2 -2q-104 47 -184.5 95t-158 113.5t-129 139.5t-83 172t-31.5 211z" />
<glyph unicode="&#xf06e;" horiz-adv-x="2048" d="M0 657.5q0 38.5 23 79.5q160 262 430 421t571 159t571.5 -159t429.5 -421q23 -41 23 -79.5t-23 -77.5q-160 -262 -430 -421t-571 -159t-571.5 158.5t-429.5 421.5q-23 39 -23 77.5zM145 657q154 -233 382.5 -372.5t496.5 -139.5t496.5 139.5t382.5 372.5 q-174 270 -437 404q70 -119 70 -256q0 -211 -150.5 -361.5t-361.5 -150.5t-361.5 150.5t-150.5 361.5q0 137 70 256q-262 -133 -437 -404zM676 805q0 -23 16.5 -39t39 -16t38.5 16t16 39q0 98 70 167.5t168 69.5q23 0 39 16.5t16 39t-16 39t-39 16.5q-143 0 -245.5 -102.5 t-102.5 -245.5z" />
<glyph unicode="&#xf070;" horiz-adv-x="2048" d="M0 658.5q0 43.5 23 78.5q176 268 435 424t566 156q102 0 205 -21l63 113q10 16 31 16q6 0 21.5 -6t36 -17t37 -21.5t36 -21.5t21.5 -13q18 -11 18 -31v-10q-121 -215 -360.5 -647.5t-360.5 -647.5l-57 -102q-10 -18 -31 -19q-14 0 -154 80q-18 12 -18 33q0 14 51 100 q-164 74 -302 197t-238 281q-23 35 -23 78.5zM145 657q193 -295 490 -428l88 162q-98 72 -154.5 181.5t-56.5 232.5q0 137 70 256q-262 -133 -437 -404zM676 805q0 -23 16.5 -39t39 -16t38.5 16t16 39q0 98 70 167.5t168 69.5q23 0 39 16.5t16 39t-16 39t-39 16.5 q-143 0 -245.5 -102.5t-102.5 -245.5zM1024 0l84 152q244 20 449.5 156t345.5 349q-133 205 -324 336l72 129q109 -74 209 -175t165 -210q23 -39 23 -78.5t-23 -78.5q-45 -74 -124 -166q-172 -197 -397.5 -305.5t-479.5 -108.5zM1206 328l322 573q8 -51 8 -96 q0 -160 -90 -290t-240 -187z" />
<glyph unicode="&#xf071;" horiz-adv-x="2199" d="M4 -82l1059 1817q4 8 13 15t22 7q12 0 20 -7t12 -15l1063 -1817q6 -4 7 -18q0 -16 -7 -23q-4 -12 -14 -17t-20 -5h-2120q-10 0 -20.5 5t-14.5 17q-10 18 0 41zM971 164q0 -59 40 -101.5t103 -42.5q66 0 104.5 42t38.5 102q0 66 -38.5 106.5t-104.5 40.5q-63 0 -103 -41 t-40 -106zM987 1110l37 -723h182l35 723h-254z" />
<glyph unicode="&#xf072;" horiz-adv-x="1609" d="M0 545q-2 14 10 28l111 111q10 10 24 10h11l221 -61l297 297l-582 317q-16 10 -18 29q-2 18 10 31l145 145q16 16 35 10l760 -182l182 182q88 88 198 124t169 -13q49 -59 13 -169t-124 -198l-184 -184l184 -795q6 -23 -14 -37l-145 -110q-8 -6 -23 -6h-8q-16 4 -25 18 l-317 582l-297 -297l61 -221q6 -20 -10 -35l-109 -111q-10 -10 -26 -10h-2q-18 2 -29 14l-215 289l-289 215q-12 8 -14 27z" />
<glyph unicode="&#xf073;" horiz-adv-x="1902" d="M0 -145v1462q0 59 43 102t102 43h148v111q0 76 53 129t129 53h74q76 0 129 -53t53 -129v-111h438v111q0 76 54.5 129t130.5 53h71q76 0 130.5 -53t54.5 -129v-111h145q59 0 103.5 -43t44.5 -102v-1462q0 -59 -44 -103.5t-104 -44.5h-1610q-59 0 -102 44t-43 104z M145 -145h330v327h-330v-327zM145 256h330v367h-330v-367zM145 694h330v330h-330v-330zM438 1243q0 -14 11.5 -25.5t25.5 -11.5h74q14 0 25.5 11.5t11.5 25.5v330q0 14 -11.5 25.5t-25.5 11.5h-74q-14 0 -25.5 -11.5t-11.5 -25.5v-330zM549 -145h364v327h-364v-327zM549 256 h364v367h-364v-367zM549 694h364v330h-364v-330zM987 -145h367v327h-367v-327zM987 256h367v367h-367v-367zM987 694h367v330h-367v-330zM1317 1243q0 -14 10 -25.5t27 -11.5h71q16 0 26.5 11.5t10.5 25.5v330q0 14 -10 25.5t-27 11.5h-71q-16 0 -26.5 -11.5t-10.5 -25.5 v-330zM1425 -145h330v327h-330v-327zM1425 256h330v367h-330v-367zM1425 694h330v330h-330v-330z" />
<glyph unicode="&#xf074;" horiz-adv-x="2048" d="M0 182v219q0 16 10 26.5t27 10.5h256q55 0 99 17.5t79 52.5t58.5 70.5t50.5 87.5q37 72 90 196q33 76 56.5 127t61 120t73.5 114t85 94t102.5 78.5t122 48t146.5 18.5h293v219q0 16 10 26.5t27 10.5q12 0 26 -10l365 -365q10 -10 10 -26.5t-10 -26.5l-367 -366 q-10 -10 -24 -11q-16 0 -26.5 11.5t-10.5 25.5v219h-293q-55 0 -99 -16t-79 -51t-58.5 -71t-52.5 -89q-37 -70 -88 -194q-33 -76 -56.5 -127.5t-62.5 -120t-73.5 -114.5t-84 -95t-102.5 -78t-121.5 -48.5t-146.5 -19.5h-256q-16 0 -26.5 10.5t-10.5 26.5zM0 1206v219 q0 16 10 26.5t27 10.5h256q285 0 469 -256q-70 -106 -158 -313q-25 51 -42 83t-46 73t-58.5 64.5t-72.5 39.5t-92 16h-256q-16 0 -26.5 10.5t-10.5 26.5zM850 403q68 106 156 312q25 -51 42 -82t45.5 -73t57.5 -65.5t72 -40t94 -16.5h293v219q0 16 10 26.5t27 10.5 q12 0 26 -10l365 -365q10 -10 10 -26.5t-10 -26.5l-367 -366q-10 -10 -24 -11q-16 0 -26.5 11.5t-10.5 25.5v219h-97.5t-93.5 -1t-84 1t-80.5 6.5t-72.5 12.5t-72 21.5t-66.5 33t-67.5 45t-62.5 60t-63.5 79.5z" />
<glyph unicode="&#xf075;" horiz-adv-x="1773" d="M0 219v1129q0 59 40 99t99 40h1497q59 0 98.5 -40t39.5 -99v-1129q0 -59 -39 -98t-99 -39h-1030l-375 -371v371h-92q-59 0 -99 39t-40 98z" />
<glyph unicode="&#xf076;" d="M0 657v148q0 29 21.5 51.5t52.5 22.5h438q31 0 52.5 -22.5t21.5 -51.5v-148q0 -59 26.5 -102t60.5 -64.5t81 -34t73.5 -15.5t50 -3t50 3t74 15.5t81 34t60 64.5t26.5 102v148q0 29 22.5 51.5t51.5 22.5h438q31 0 52.5 -22.5t21.5 -51.5v-148q0 -229 -112.5 -412.5 t-313.5 -286.5t-451.5 -103t-451.5 103t-313.5 286.5t-112.5 412.5zM0 1098v438q0 31 21.5 52.5t52.5 21.5h438q31 0 52.5 -21.5t21.5 -52.5v-438q0 -31 -21.5 -52.5t-52.5 -21.5h-438q-31 0 -52.5 21.5t-21.5 52.5zM1169 1098v438q0 31 22.5 52.5t51.5 21.5h438 q31 0 52.5 -21.5t21.5 -52.5v-438q0 -31 -21.5 -52.5t-52.5 -21.5h-438q-29 0 -51.5 21.5t-22.5 52.5z" />
<glyph unicode="&#xf077;" horiz-adv-x="1902" d="M61 367q0 59 43 102l744 745q43 41 102 41t105 -41l743 -745q43 -43 43 -103.5t-43 -103.5l-86 -86q-43 -43 -102 -43q-61 0 -105 43l-555 555l-555 -555q-41 -43 -102.5 -43t-102.5 43l-86 86q-43 41 -43 105z" />
<glyph unicode="&#xf078;" horiz-adv-x="1902" d="M61 950q0 61 43 105l84 86q45 43 105 43q59 0 102 -43l555 -555l555 555q43 43 105 43q59 0 102 -43l86 -86q43 -46 43 -105t-43 -102l-743 -744q-43 -43 -105 -43q-61 0 -102 43l-744 744q-43 41 -43 102z" />
<glyph unicode="&#xf079;" horiz-adv-x="2193" d="M0 805q0 27 16 47l367 438q23 25 56.5 25t56.5 -25l364 -438q18 -20 19 -47q0 -31 -22.5 -52.5t-51.5 -21.5h-219v-438h657q18 0 29 -12l182 -220q8 -14 8 -24q0 -14 -10 -25.5t-27 -11.5h-1095q-10 0 -16.5 2t-10.5 8t-6 9.5t-3 13.5t-1 13v14.5v13.5v182v475h-219 q-31 0 -52.5 21.5t-21.5 52.5zM731 1280q0 14 11.5 25.5t25.5 11.5h1098q8 0 14 -2t10 -8.5t6 -9.5t4.5 -13t2.5 -13v-14.5v-13.5v-182v-475h219q29 0 50 -21.5t21 -52.5q0 -27 -16 -47l-367 -438q-23 -27 -55.5 -27t-54.5 27l-367 438q-16 20 -16 47q0 31 21.5 52.5 t52.5 21.5h219v438h-660q-18 0 -28 14l-183 219q-8 10 -8 23z" />
<glyph unicode="&#xf07a;" horiz-adv-x="1902" d="M0 1389.5q0 29.5 21.5 51t52.5 21.5h293q18 0 31.5 -7t22.5 -17.5t15 -27.5t8 -30.5t6.5 -34t6.5 -28.5h1372q29 0 51.5 -21.5t22.5 -52.5v-586q0 -27 -18.5 -48t-47.5 -23l-1194 -140l6 -24t6 -30.5t2 -24.5q0 -18 -26 -74h1050q31 0 52.5 -21.5t21.5 -51.5t-21.5 -52.5 t-52.5 -22.5h-1169q-31 0 -52.5 22.5t-21.5 51.5q0 16 13.5 45t34 68t22.5 45l-201 940h-233q-31 0 -52.5 21.5t-21.5 51zM438 0q0 61 43 103t103.5 42t103.5 -43q43 -41 43 -102t-43 -103t-103.5 -42t-103.5 42t-43 103zM1462 0q0 61 43 103t103.5 42t103.5 -43 q43 -41 43 -102t-43 -103t-103.5 -42t-103.5 42t-43 103z" />
<glyph unicode="&#xf07b;" horiz-adv-x="1902" d="M0 256v1098q0 104 76 180t180 76h367q104 0 180 -76t76 -180v-37h768q104 0 180 -76t76 -180v-805q0 -104 -76 -180t-180 -76h-1391q-104 0 -180 76t-76 180z" />
<glyph unicode="&#xf07c;" horiz-adv-x="2193" d="M0 256v1098q0 104 76 180t180 76h367q104 0 180 -76t76 -180v-37h620q104 0 180 -76t76 -180v-182h-950q-109 0 -226.5 -54.5t-187.5 -138.5l-385 -453l-4 -6q0 4 -1 14.5t-1 14.5zM84 63q0 37 35 76l385 453q49 59 137 99t164 40h1243q39 0 69.5 -14t30.5 -49t-37 -76 l-382 -453q-49 -57 -138.5 -98t-165.5 -41h-1243q-39 0 -68.5 15.5t-29.5 47.5z" />
<glyph unicode="&#xf07d;" horiz-adv-x="878" d="M74 72.5q0 29.5 21.5 51t49.5 21.5h148v1172h-148q-29 0 -50 21.5t-21 51t20 52.5l293 293q23 20 52.5 20t49.5 -20l293 -293q23 -23 23 -52.5t-21.5 -51t-52.5 -21.5h-145v-1172h145q31 0 52.5 -21.5t21.5 -51t-23 -49.5l-293 -293q-20 -23 -49.5 -23t-52.5 23l-293 293 q-20 20 -20 49.5z" />
<glyph unicode="&#xf07e;" horiz-adv-x="2048" d="M0 732.5q0 29.5 23 49.5l290 293q23 23 52.5 23t51 -21.5t21.5 -52.5v-145h1172v145q0 31 21.5 52.5t51 21.5t52.5 -23l290 -293q23 -20 23 -49.5t-23 -52.5l-290 -293q-23 -20 -52.5 -20t-51 21.5t-21.5 49.5v148h-1172v-148q0 -29 -21.5 -50t-51 -21t-52.5 20l-290 293 q-23 23 -23 52.5z" />
<glyph unicode="&#xf080;" horiz-adv-x="2193" d="M0 37v1388q0 76 53 130.5t129 54.5h1829q76 0 129 -54.5t53 -130.5v-1388q0 -76 -53 -129t-129 -53h-1829q-76 0 -129 53t-53 129zM145 37q0 -14 11.5 -25.5t25.5 -11.5h1829q14 0 25.5 11.5t11.5 25.5v1388q0 16 -11.5 26.5t-25.5 10.5h-1829q-14 0 -25.5 -10t-11.5 -27 v-1388zM293 145v441h293v-441h-293zM731 145v1024h293v-1024h-293zM1169 145v734h293v-734h-293zM1610 145v1172h293v-1172h-293z" />
<glyph unicode="&#xf081;" d="M0 182v1098q0 135 96.5 232.5t233.5 97.5h1095q137 0 233.5 -97.5t96.5 -232.5v-1098q0 -135 -96 -231t-234 -96h-1095q-137 0 -233.5 96t-96.5 231zM293 328q168 -109 369 -109q127 0 238.5 41t192.5 108.5t138 156.5t84.5 185.5t27.5 192.5v31q72 51 119 125 q-63 -29 -137 -39q78 45 107 133q-76 -43 -154 -57q-70 74 -174 73q-100 0 -171 -69.5t-71 -169.5q0 -33 6 -56q-147 8 -276 75t-219 177q-33 -57 -33 -120q0 -131 104 -201q-55 2 -114 31v-2q0 -86 57 -153t139 -83q-33 -10 -57 -10q-14 0 -45 6q25 -74 85 -120t138 -48 q-131 -102 -297 -102q-31 0 -57 4z" />
<glyph unicode="&#xf082;" d="M0 182v1098q0 135 96.5 232.5t233.5 97.5h1095q137 0 233.5 -97.5t96.5 -232.5v-1098q0 -135 -96 -231t-234 -96h-1095q-137 0 -233.5 96t-96.5 231zM844 707h149v-725h301v725h199l27 249h-226v125q0 55 17.5 78t81.5 23h127v250h-201q-174 0 -250 -82t-76 -244v-150 h-149v-249z" />
<glyph unicode="&#xf083;" horiz-adv-x="2048" d="M0 0v1462q0 61 43 104.5t102 43.5h1758q59 0 102 -43.5t43 -104.5v-1462q0 -61 -43 -103t-102 -42h-1758q-59 0 -102 42t-43 103zM145 0h1758v145h-1758v-145zM145 1169h1758v136v157h-947l-73 -145h-738v-148zM293 1391h438v145h-438v-145zM586 656.5 q0 -181.5 128 -310.5t310 -129t309 129q129 129 129 310.5t-128 310.5t-310 129t-310 -129t-128 -310.5zM731 655.5q0 120.5 86 206.5t207 86t207 -86t86 -206.5t-86 -207t-207 -86.5t-207 86.5t-86 207zM842 657q0 -14 10 -24t25.5 -10t25.5 10t10 24q0 47 33 79t78 32 q16 0 26.5 10t10.5 26.5t-10.5 27t-26.5 10.5q-76 0 -129 -54.5t-53 -130.5z" />
<glyph unicode="&#xf084;" horiz-adv-x="2048" d="M0 860q0 182 108.5 357.5t283.5 284t358 108.5q186 0 302.5 -118t116.5 -304q0 -215 -149 -416l405 -405l111 108q-4 4 -29.5 28.5t-45 44t-38 42t-18.5 33.5q0 18 56.5 74.5t74.5 56.5q14 0 27 -13q6 -6 52 -50t94 -91t98.5 -98t83 -89t32.5 -46q0 -20 -56.5 -77 t-74.5 -57q-10 0 -32.5 18.5t-42 38t-44 46t-26.5 31.5l-111 -111l252 -252q31 -31 31 -78t-44 -92t-94 -45q-45 0 -77 33l-766 766q-201 -150 -418 -150q-186 0 -303 118t-117 304zM219 877.5q0 -91.5 64.5 -156t155.5 -64.5t154.5 64.5t63.5 157.5q0 47 -20 94 q47 -23 94 -23q92 0 155.5 64.5t63.5 156t-63.5 156t-154.5 64.5t-155.5 -65t-64.5 -157q0 -47 23 -94q-47 23 -97 23q-90 0 -154.5 -64.5t-64.5 -156z" />
<glyph unicode="&#xf085;" horiz-adv-x="2193" d="M0 627v213q0 10 8 21t19 11l176 29q12 39 37 86q-39 55 -103 131q-8 12 -8 23q0 14 8 24q25 33 93.5 100.5t91.5 67.5q12 0 24 -8l131 -102q39 20 88 37q12 123 27 176q6 27 33 26h213q12 0 22 -8t12 -20l27 -174q39 -12 84 -35l135 100q10 8 23 8q14 0 24 -8 q166 -152 166 -184q0 -10 -8 -21q-14 -18 -49 -61t-51 -70q27 -55 39 -92l174 -27q10 -2 18 -12t8 -22v-211q0 -12 -8 -22.5t-18 -12.5l-176 -27q-12 -41 -37 -88q39 -55 102 -131q8 -12 8 -22q0 -14 -8 -23q-27 -35 -94.5 -102.5t-89.5 -67.5q-12 0 -23 8l-131 103 q-43 -20 -88 -35q-14 -123 -27 -178q-8 -27 -34 -27h-213q-12 0 -22.5 8t-10.5 21l-27 174q-39 12 -86 37l-135 -103q-8 -8 -22 -8q-12 0 -25 10q-164 152 -164 183q0 10 8 20q10 16 46 61.5t55 69.5q-27 51 -41 94l-174 27q-10 2 -18.5 11t-8.5 22zM438 731q0 -121 86 -207 t207 -86t207 86t86 207t-86 207t-207 86t-207 -86t-86 -207zM1317 66v159q0 18 170 37q14 33 35 60q-59 129 -60 157q0 4 6 8q4 2 39 22.5t68 39t35 18.5q8 0 52 -53t58 -78q25 2 36 2t34 -2q57 82 104 129l9 2q4 0 141 -80q4 -4 4 -8q0 -29 -57 -157q18 -27 32 -60 q170 -19 170 -37v-159q0 -18 -170 -35q-12 -31 -32 -60q57 -129 57 -157q0 -4 -4 -9q-139 -80 -141 -79q-10 0 -53.5 53t-59.5 78q-23 -2 -34 -2t-36 2q-14 -25 -58 -78t-52 -53q-2 0 -142 79q-6 4 -6 9q0 29 60 157q-20 29 -35 60q-170 16 -170 35zM1317 1237v160 q0 18 170 35q14 33 35 59q-59 129 -60 158q0 4 6 8q4 2 39 22.5t68 39t35 18.5q8 0 52 -53.5t58 -75.5q25 2 36 2t34 -2q57 80 104 127l9 2q4 0 141 -80q4 -4 4 -8q0 -29 -57 -158q18 -27 32 -59q170 -17 170 -35v-160q0 -18 -170 -37q-12 -31 -32 -59q57 -129 57 -158 q0 -4 -4 -6q-139 -82 -141 -82q-10 0 -53.5 53t-59.5 78q-23 -2 -34 -2t-36 2q-14 -25 -58 -78t-52 -53q-2 0 -142 82q-6 2 -6 6q0 29 60 158q-20 29 -35 59q-170 18 -170 37zM1610 145q0 -59 43 -102t103.5 -43t103.5 43t43 102t-44 103.5t-103.5 44.5t-102.5 -44t-43 -104 zM1610 1317q0 -61 43 -104.5t103.5 -43.5t103.5 43.5t43 104.5q0 59 -44 102t-103.5 43t-102.5 -43t-43 -102z" />
<glyph unicode="&#xf086;" horiz-adv-x="2048" d="M0 879q0 158 107.5 293t293 212.5t403.5 77.5t404.5 -77.5t294 -213t107.5 -294t-107.5 -293.5t-294 -213t-403.5 -78q-98 0 -201 18q-143 -100 -317 -147q-43 -10 -99 -19h-4q-12 0 -23 9.5t-14 25.5q-2 2 -2 6t1 8.5t3.5 7.5t3.5 5t4 6t4 6t5 6l4 4q6 8 26.5 30t30 33 t25.5 32.5t28.5 44t22.5 51.5q-141 82 -222 201.5t-81 257.5zM705 152q66 -6 100 -7q184 0 353 52.5t302 148.5q141 104 218 241.5t77 291.5q0 88 -26 172q147 -80 233 -203t86 -262q0 -137 -81 -257t-222 -202q10 -27 22.5 -50.5t28.5 -44t25.5 -32.5t30 -33.5t26.5 -29.5 l4 -5q4 -4 5 -6t4 -6t4 -6t3.5 -5t3.5 -7t1 -8.5t-2 -6.5q-4 -16 -15.5 -25t-25.5 -7q-55 6 -99 16q-174 47 -317 147q-102 -18 -201 -18q-309 0 -538 152z" />
<glyph unicode="&#xf087;" d="M0 145v734q0 59 43 102t102 43h314q41 27 157 176q66 86 121 148q29 29 42.5 97t35 144t70.5 123q45 43 102 43q96 0 173 -37t117 -115.5t40 -211.5q0 -106 -55 -222h200q119 0 206 -85.5t87 -204.5q0 -102 -55 -187q10 -37 10 -78q0 -88 -43 -165q2 -23 2 -50 q0 -115 -67 -202q0 -160 -98.5 -251t-258.5 -91h-41h-106q-111 0 -217.5 25.5t-247.5 74.5q-133 45 -158 45h-330q-59 0 -102 43t-43 102zM145 220q0 -30 22.5 -52.5t52.5 -22.5t50 23q23 23 23 52.5t-21.5 51t-51.5 21.5t-52.5 -21.5t-22.5 -51.5zM438 145h37q14 0 35.5 -3 t38 -7t43 -12t40 -13.5t41 -14.5t34.5 -11q242 -84 391 -84h137q219 0 219 190q0 31 -4 64q33 18 53.5 60t20.5 84t-21 79q59 57 60 137q0 29 -11.5 64t-27.5 53q37 2 61.5 54.5t24.5 93.5q0 57 -45 101t-103 44h-401q0 66 54 182.5t54 184.5q0 111 -35.5 165t-146.5 54 q-29 -31 -43 -98.5t-34.5 -143.5t-67.5 -125q-27 -27 -88 -104q-4 -4 -26.5 -33t-37 -47.5t-39 -49t-45 -50t-44 -40t-46 -30.5t-41.5 -10h-37v-734z" />
<glyph unicode="&#xf088;" d="M0 586v731q0 59 43 102t102 43h330q25 0 158 47q147 49 255.5 75t227.5 26h129q160 0 258.5 -90t98.5 -248v-6q68 -88 67 -203q0 -25 -2 -49q43 -76 43 -164q0 -41 -10 -80q55 -84 55 -186q0 -117 -87 -204t-206 -87h-200q55 -113 55 -219q0 -135 -41 -213 q-39 -80 -116 -117t-173 -37q-57 0 -102 43q-39 37 -61.5 93.5t-30 103.5t-20.5 96t-36 74q-53 57 -121 145q-117 150 -157 176h-314q-59 0 -102 43t-43 105zM145 1244q0 -30 22.5 -52.5t52.5 -22.5t50 23q23 23 23 52.5t-21.5 51t-51.5 21.5t-52.5 -21.5t-22.5 -51.5z M438 586h37q18 0 41 -10.5t46.5 -31t44 -41t45 -51t39 -48t37 -46t26.5 -34.5q61 -78 88 -105q47 -49 67.5 -125t34.5 -143.5t43 -95.5q111 0 146.5 53t35.5 166q0 68 -54 183.5t-54 180.5h401q57 0 102.5 44.5t45.5 103.5q0 39 -24.5 92t-61.5 53q16 20 27.5 55t11.5 64 q0 78 -60 135q20 37 20.5 79t-20 84t-53.5 60q4 35 4 64q0 98 -55.5 144t-155.5 46h-145q-150 0 -391 -82q-6 -4 -34 -13t-41.5 -14t-40 -13.5t-43 -12.5t-38 -7t-35.5 -3h-37v-731z" />
<glyph unicode="&#xf089;" horiz-adv-x="1024" d="M0 1016q0 43 63 53l574 84l258 518q22 47 55 47v-1530l-512 -270q-27 -12 -47 -12q-23 0 -35 16.5t-12 40.5q0 6 2 23l98 571l-415 404q-29 31 -29 55z" />
<glyph unicode="&#xf08a;" horiz-adv-x="2052" d="M0 1073q0 125 38 225.5t109.5 170t173 106.5t230.5 37q70 0 137.5 -23.5t128 -59.5t111.5 -77t88 -76q0 -6 10 -16l8 8t6 8q37 35 87.5 76t110.5 77t127.5 59.5t139.5 23.5q129 0 230.5 -37t172 -106.5t107.5 -170t37 -225.5q0 -102 -40 -194.5t-87 -161t-88 -111.5 t-41 -47l-770 -735l-764 735q-4 4 -46 47t-90 111.5t-87 161t-39 194.5zM160 1073q0 -41 19.5 -105.5t78.5 -150.5q41 -61 74 -97t37 -36v-8h4l653 -627l657 627l5 8q16 14 34 35q16 16 36 41.5t40 56.5q35 47 62.5 115.5t27.5 140.5q0 186 -92 283q-33 31 -101.5 63.5 t-189.5 32.5q-78 0 -168 -50t-184 -142l-4 -7l-6 -6h-6l-111 -108l-111 108l-8 6l-4 7q-96 92 -188 142t-164 50q-68 0 -148.5 -19.5t-144.5 -76.5q-98 -96 -98 -283z" />
<glyph unicode="&#xf08b;" horiz-adv-x="1902" d="M0 330v805q0 135 96.5 231t233.5 96h364q16 0 26.5 -10t10.5 -27q0 -4 1 -22.5t1 -29.5t-3 -26.5t-11 -22.5t-25 -7h-364q-76 0 -130.5 -54.5t-54.5 -127.5v-805q0 -76 54.5 -130.5t130.5 -54.5h327h13.5h14.5t13.5 -1t13.5 -3l9 -6t8 -10t2 -14q0 -6 1 -24.5t1 -30 t-3 -27t-11 -22.5t-25 -7h-364q-137 0 -233.5 96.5t-96.5 233.5zM438 512v438q0 31 21.5 52.5t52.5 21.5h512v330q0 29 21.5 50t51 21t52.5 -20l620 -623q23 -20 23 -49.5t-23 -52.5l-620 -623q-23 -20 -52.5 -20t-51 21.5t-21.5 52.5v327h-512q-31 0 -52.5 21.5t-21.5 52.5 z" />
<glyph unicode="&#xf08c;" d="M0 182v1098q0 135 96.5 232.5t233.5 97.5h1095q137 0 233.5 -97.5t96.5 -232.5v-1098q0 -135 -96 -231t-234 -96h-1095q-137 0 -233.5 96t-96.5 231zM254 1178q0 -59 41 -98.5t106 -39.5q68 0 110 39.5t42 98.5q-2 59 -42 98t-106.5 39t-108.5 -39t-42 -98zM270 139h265 v793h-265v-793zM680 139h264v445q0 43 8 63q16 39 51 67.5t84 28.5q133 0 134 -180v-424h264v455q0 176 -84 266t-221 90q-154 0 -238 -133h2v115h-264q4 -74 0 -793z" />
<glyph unicode="&#xf08d;" horiz-adv-x="1316" d="M0 367q0 139 90 251.5t203 112.5v586q-59 0 -103.5 43t-44.5 102.5t44 103.5t104 44h731q59 0 102 -44t43 -103.5t-43 -102.5t-102 -43v-586q113 0 203 -112.5t90 -251.5q0 -31 -21.5 -52.5t-52.5 -21.5h-489l-60 -553q-2 -12 -11 -22.5t-24 -10.5h-2q-31 0 -34 31 l-88 555h-461q-31 0 -52.5 21.5t-21.5 52.5zM475 768q0 -16 10.5 -26.5t26.5 -10.5t26.5 10.5t10.5 26.5v512q0 16 -10.5 26.5t-26.5 10.5t-26.5 -10.5t-10.5 -26.5v-512z" />
<glyph unicode="&#xf08e;" horiz-adv-x="2048" d="M0 330v950q0 135 96.5 232.5t233.5 97.5h805q14 0 24 -10.5t10 -26.5v-74q0 -16 -10 -26.5t-24 -10.5h-805q-76 0 -130.5 -53t-54.5 -129v-950q0 -76 54.5 -130.5t130.5 -54.5h950q76 0 129 54.5t53 130.5v364q0 16 10.5 26.5t26.5 10.5h74q16 0 26.5 -10.5t10.5 -26.5 v-364q0 -137 -97.5 -233.5t-232.5 -96.5h-950q-137 0 -233.5 96.5t-96.5 233.5zM782.5 658.5q-0.5 15.5 12.5 25.5l745 746l-203 200q-20 23 -20 52.5t21.5 51t52.5 21.5h583q31 0 52.5 -21.5t21.5 -52.5v-583q0 -31 -21.5 -52.5t-51 -21.5t-52.5 23l-201 200l-745 -745 q-10 -12 -25.5 -12.5t-27.5 12.5l-129 131q-12 10 -12.5 25.5z" />
<glyph unicode="&#xf090;" d="M0 512v438q0 31 21.5 52.5t52.5 21.5h512v330q0 29 21.5 50t51 21t52.5 -20l620 -623q23 -20 23 -49.5t-23 -52.5l-620 -623q-23 -20 -52.5 -20t-51 21.5t-21.5 52.5v327h-512q-31 0 -52.5 21.5t-21.5 52.5zM1022 90q0 12 3 26.5t12.5 21.5t23.5 7h364q76 0 130.5 54.5 t54.5 130.5v805q0 74 -54.5 128t-130.5 54h-327h-13.5h-14.5t-13 1t-13.5 3t-9.5 6t-8 10t-2 17q0 4 -1 22.5t-1 30.5t3 26.5t12.5 21.5t23.5 7h364q137 0 233.5 -96t96.5 -231v-805q0 -137 -96 -233.5t-234 -96.5h-364q-14 0 -25.5 11.5t-11.5 25.5q0 4 -1 22.5t-1 30.5z " />
<glyph unicode="&#xf091;" horiz-adv-x="1902" d="M0 1061v145q0 47 31.5 79t79.5 32h327v108q0 76 54.5 130.5t130.5 54.5h657q76 0 129 -54.5t53 -130.5v-108h330q45 0 78 -32t33 -79v-145q0 -82 -48.5 -164t-128 -148.5t-197.5 -111.5t-247 -51q-47 -61 -108 -109q-43 -39 -59.5 -83t-16.5 -101q0 -61 34.5 -104.5 t110.5 -43.5q86 0 152.5 -51t66.5 -131v-74q0 -14 -10 -24t-27 -10h-950q-16 0 -26.5 10t-10.5 24v74q0 80 67.5 131t151.5 51q78 0 113 43t35 105q0 57 -16.5 101t-61.5 83q-59 47 -109 109q-129 6 -245.5 51t-197.5 111.5t-128 148.5t-47 164zM145 1061 q0 -90 108.5 -185.5t270.5 -130.5q-86 186 -86 424h-293v-108zM1378 745q162 35 269.5 130.5t107.5 185.5v108h-293q0 -238 -84 -424z" />
<glyph unicode="&#xf092;" d="M0 182v1098q0 135 96.5 232.5t233.5 97.5h1095q137 0 233.5 -97.5t96.5 -232.5v-1098q0 -135 -96 -231t-234 -96h-256q-16 0 -26 1t-22.5 5t-18.5 16t-6 31v274q0 111 -60 162q66 6 118 20.5t107.5 45t92.5 75.5t60.5 120t23.5 171q0 139 -90 236q43 104 -11 233 q-31 10 -91 -12.5t-105 -48.5l-43 -29q-106 31 -220 31t-221 -31q-16 12 -46.5 30.5t-96 44t-98.5 15.5q-49 -129 -8 -233q-90 -96 -91 -236q0 -96 24 -171t60.5 -120t92 -75.5t107.5 -45t116 -20.5q-45 -41 -55 -119q-25 -10 -51.5 -16t-64.5 -6t-76 24.5t-62 71.5 q-23 37 -57 59.5t-56 28.5l-23 2q-25 0 -34 -5t-4.5 -13.5t10.5 -15.5t14 -13l8 -6q25 -12 49.5 -44t36.5 -59l10 -24q16 -45 51.5 -71.5t76 -34t79.5 -8.5t64 5l26 4q0 -43 1.5 -117.5t1.5 -78.5q0 -25 -13.5 -38t-26 -14t-36.5 -1h-256q-137 0 -233.5 96t-96.5 231z M309 360q4 6 15 2q12 -6 8 -14t-15 -2q-10 6 -8 14zM348 332q6 6 19 -4q10 -13 2 -19q-8 -8 -19 4q-10 12 -2 19zM383 266.5q-10 14.5 0 20.5q10 8 18 -6q10 -14 0 -23q-8 -6 -18 8.5zM422 236q10 10 24 -5q13 -12 5 -20q-10 -10 -23 2q-16 12 -6 23zM479.5 192.5 q3.5 12.5 20.5 8.5q18 -7 16 -19q-6 -14 -22 -8q-18 6 -14.5 18.5zM549 176q0 12 18 12q21 2 21 -12q0 -12 -19 -12q-20 -2 -20 12zM616 180.5q-2 14.5 17 18.5q18 1 20 -11t-16.5 -17t-20.5 9.5z" />
<glyph unicode="&#xf093;" horiz-adv-x="1902" d="M0 -37v367q0 45 31.5 76.5t79.5 31.5h487q25 -63 81 -104t126 -41h293q70 0 126 41t81 104h487q45 0 78 -31.5t33 -76.5v-367q0 -45 -33 -76.5t-78 -31.5h-1681q-47 0 -79 31.5t-32 76.5zM371 1069q-18 45 16 80l512 512q20 20 51 20t51 -20l512 -512q37 -35 17 -80 q-18 -45 -68 -45h-293v-512q0 -31 -21.5 -52.5t-49.5 -21.5h-293q-31 0 -52.5 21.5t-21.5 52.5v512h-293q-47 0 -67 45zM1317 72.5q0 -29.5 21.5 -51t51.5 -21.5t50 20q23 23 22.5 52.5t-22 51t-51 21.5t-51 -21.5t-21.5 -51zM1610 72.5q0 -29.5 21.5 -51t51.5 -21.5t50 20 q23 23 22.5 52.5t-22 51t-51 21.5t-51 -21.5t-21.5 -51z" />
<glyph unicode="&#xf094;" d="M0 496q0 127 20.5 247.5t62.5 238.5t114.5 222.5t171.5 177.5q90 68 266 138q221 90 360 90q70 0 201 -28t199 -28q20 0 64 6.5t67 6.5q92 0 134 -58.5t42 -154.5q0 -27 -5 -78t-5 -78q0 -10 1 -20.5t3 -19.5t4 -15t7 -18.5t9 -18.5q18 -47 28.5 -136t10.5 -157 q0 -188 -81 -373.5t-224 -329t-322 -206.5q-141 -49 -372 -49q-63 0 -193.5 16t-193.5 16q-27 0 -82.5 -16t-83.5 -16q-84 0 -141.5 63.5t-57.5 144.5q0 29 12.5 79.5t12.5 76.5q0 45 -14.5 137.5t-14.5 139.5zM145 496q0 -45 14.5 -136.5t14.5 -138.5q0 -27 -12 -77 t-12 -74.5t13 -41t40 -16.5t82 12.5t84 12.5q66 0 194.5 -17.5t192.5 -17.5q207 0 325 41q147 51 269.5 174t190 280.5t67.5 313.5q0 51 -8.5 130t-20.5 110q-12 35 -18.5 51t-11.5 41.5t-5 54.5q0 27 6 79t6 77q0 43 -12 63q-4 2 -14 2q-20 0 -65.5 -5t-67.5 -5 q-70 0 -202 26.5t-200 26.5q-49 0 -107.5 -13t-97 -26.5t-102.5 -38.5q-158 -61 -231 -118q-109 -82 -181.5 -215t-101.5 -270.5t-29 -284.5z" />
<glyph unicode="&#xf095;" horiz-adv-x="1609" d="M0 1223q0 104 57 211q66 117 123 139q29 14 78 25.5t80 11.5q16 0 24 -4q20 -6 60 -86q14 -23 35.5 -63t40 -72.5t34.5 -61.5q4 -4 20.5 -27.5t25 -41t8.5 -31.5q0 -25 -33 -59t-71 -62.5t-70.5 -60t-32.5 -52.5q0 -10 5 -25.5t9 -23.5t16.5 -27.5t12.5 -21.5 q88 -158 199.5 -269.5t269.5 -199.5q2 0 21.5 -12.5t27.5 -16.5t23.5 -9t25.5 -5q20 0 52 32.5t60.5 70.5t62.5 71t59 33q14 0 31.5 -8.5t41 -24.5t27.5 -21q29 -16 61.5 -34.5t72.5 -40t63 -35.5q80 -39 86 -60q4 -8 4 -24q0 -31 -11.5 -80t-25.5 -78q-23 -57 -139 -123 q-106 -57 -211 -57q-33 0 -61.5 4t-65.5 14.5t-54.5 16.5t-63.5 23.5t-56 21.5q-111 39 -199 94q-147 90 -303 245.5t-246 303.5q-55 88 -94 199q-4 10 -21.5 56t-23.5 63.5t-16.5 54.5t-14.5 65.5t-4 61.5z" />
<glyph unicode="&#xf096;" horiz-adv-x="1609" d="M0 330v950q0 135 96.5 232.5t233.5 97.5h950q135 0 232.5 -97.5t97.5 -232.5v-950q0 -137 -97.5 -233.5t-232.5 -96.5h-950q-137 0 -233.5 96.5t-96.5 233.5zM145 330q0 -76 54.5 -130.5t130.5 -54.5h950q76 0 129 54.5t53 130.5v950q0 76 -53 129t-129 53h-950 q-76 0 -130.5 -53t-54.5 -129v-950z" />
<glyph unicode="&#xf097;" horiz-adv-x="1462" d="M0 8v1473q0 39 22.5 70.5t59.5 47.5q25 10 51 11h1198q25 0 49 -11q39 -16 60.5 -47.5t21.5 -70.5v-1473q0 -39 -21.5 -70.5t-60.5 -48.5q-20 -8 -49 -8q-55 0 -96 37l-504 483l-504 -483q-41 -39 -94 -39q-27 0 -51 10q-37 16 -59.5 48t-22.5 71zM145 43l484 465l102 96 l103 -96l483 -465v1419h-1172v-1419z" />
<glyph unicode="&#xf098;" d="M0 182v1098q0 135 96.5 232.5t233.5 97.5h1095q137 0 233.5 -97.5t96.5 -232.5v-1098q0 -135 -96 -231t-234 -96h-1095q-137 0 -233.5 96t-96.5 231zM293 1034q0 -18 3 -38.5t5 -35t10 -38t12.5 -33.5t14.5 -38t12 -34q68 -188 247 -366.5t366 -247.5q8 -2 35.5 -12.5 t38 -14.5t33 -11t36.5 -10t35.5 -6.5t38.5 -3.5q66 0 149.5 39t108.5 92q24 62 24 115q0 14 -2 19q-4 10 -44 34.5t-101 55.5l-60 35q-6 2 -22 13t-28.5 17t-24.5 6q-20 0 -53 -36.5t-65 -74.5t-50 -38q-8 0 -19.5 4t-17.5 7t-19.5 10.5t-15.5 11.5q-115 61 -195.5 143 t-144.5 195q-2 4 -9 16t-11.5 19.5t-8.5 18.5t-4 17q0 16 23.5 40t52.5 44.5t51.5 45t22.5 40.5q0 12 -5 24.5t-16.5 29t-15.5 20.5q-4 8 -17.5 33.5t-29 51.5t-30.5 54.5t-27.5 47t-18.5 20.5t-18 2q-55 0 -117 -25q-51 -25 -90 -108.5t-39 -149.5z" />
<glyph unicode="&#xf099;" horiz-adv-x="1902" d="M51 166q39 -4 88 -4q258 0 459 157q-121 2 -215 74t-131 182q39 -6 70 -6q49 0 98 13q-129 27 -213 128t-84 234v4q78 -43 168 -47q-76 51 -121 132t-45 175q0 102 51 187q137 -170 336 -272.5t426 -112.5q-10 43 -10 84q0 154 108.5 261t259.5 107q160 0 271 -116 q125 25 233 90q-41 -131 -162 -203q107 10 213 55q-76 -111 -184 -190v-47q0 -150 -43 -297.5t-132 -283.5t-211 -240.5t-295 -167t-370 -62.5q-309 0 -565 166z" />
<glyph unicode="&#xf09a;" horiz-adv-x="878" d="M0 795v325h195v195q0 209 98 315.5t323 106.5h258v-324h-161q-45 0 -72 -8t-38 -26.5t-15 -39t-4 -57.5v-162h295l-35 -325h-260v-940h-389v940h-195z" />
<glyph unicode="&#xf09b;" d="M0 731q0 240 118 441.5t319.5 319.5t440 118t440.5 -118t319.5 -319.5t117.5 -441.5q0 -287 -167 -516t-433 -317q-31 -4 -45 9t-14 34v241q0 111 -60 162q66 6 118 20.5t107.5 45t92.5 75.5t60.5 120t23.5 171q0 139 -90 236q43 104 -11 233q-31 10 -91 -12.5 t-105 -48.5l-43 -29q-106 31 -220 31t-221 -31q-16 12 -46.5 30.5t-96 44t-98.5 15.5q-49 -129 -8 -233q-90 -96 -91 -236q0 -96 24 -171t60.5 -120t92 -75.5t107.5 -45t116 -20.5q-45 -41 -55 -119q-25 -10 -51.5 -16t-64.5 -6t-76 24.5t-62 71.5q-23 37 -57 59.5t-56 28.5 l-23 2q-25 0 -34 -5t-4.5 -13.5t10.5 -15.5t14 -13l8 -6q25 -12 49.5 -44t36.5 -59l10 -24q16 -45 51.5 -71.5t76 -34t79.5 -8.5t64 5l26 4q0 -43 1.5 -101t1.5 -62q0 -20 -15.5 -33.5t-46.5 -9.5q-264 88 -432 317t-168 516z" />
<glyph unicode="&#xf09c;" horiz-adv-x="1902" d="M0 111v657q0 45 31.5 78t79.5 33h768v219q0 211 149.5 361.5t361.5 150.5t362.5 -150.5t150.5 -361.5v-293q0 -31 -22.5 -52.5t-51.5 -21.5h-74q-29 0 -51.5 21.5t-22.5 52.5v293q0 121 -85 207t-206.5 86t-206.5 -86t-85 -207v-219h108q47 0 79 -33t32 -78v-657 q0 -47 -32 -79t-79 -32h-1095q-47 0 -79 31.5t-32 79.5z" />
<glyph unicode="&#xf09d;" horiz-adv-x="2193" d="M0 45v1370q0 74 48 124t122 50h1851q74 0 123 -50t49 -124v-1370q0 -74 -49 -123t-123 -49h-1851q-74 0 -122 49t-48 123zM115 844h1966v456h-1966v-456zM1165 78h801v344h-801v-344z" />
<glyph unicode="&#xf09e;" horiz-adv-x="1609" d="M0 220q0 91 64.5 154.5t156 63.5t154.5 -63t63 -154.5t-63.5 -156t-154.5 -64.5t-155.5 64.5t-64.5 155.5zM0 797v153q0 33 25 56q18 18 49 18h6q182 -14 349 -92t296 -207t207 -296t92 -349q2 -33 -18 -55q-23 -25 -56 -25h-153q-29 0 -49.5 18.5t-22.5 47.5 q-25 262 -211 448t-448 211q-29 2 -47.5 22.5t-18.5 49.5zM0 1372v164q0 33 23 53q20 20 51 21h2q301 -16 574.5 -138t486.5 -335t335 -486.5t138 -574.5q2 -31 -21 -53q-20 -23 -53 -23h-164q-29 0 -50.5 20.5t-23.5 47.5q-12 246 -114.5 467t-265 383.5t-384 265 t-466.5 116.5q-27 2 -47.5 22.5t-20.5 49.5z" />
<glyph unicode="&#xf0a0;" d="M0 182v367q0 29 18 86l226 692q18 59 71.5 97t114.5 38h895q61 0 114.5 -38t71.5 -97l226 -692q18 -57 18 -86v-367q0 -76 -53 -129t-129 -53h-1391q-76 0 -129 53t-53 129zM145 182q0 -14 11.5 -25.5t25.5 -11.5h1391q14 0 25.5 11.5t11.5 25.5v367q0 14 -11.5 25.5 t-25.5 11.5h-1391q-14 0 -25.5 -11.5t-11.5 -25.5v-367zM203 731h1349l-180 551q-4 14 -17.5 24.5t-29.5 10.5h-895q-14 0 -28.5 -10.5t-18.5 -24.5zM1006 365.5q0 37.5 26.5 64.5t64 27t64.5 -27t27 -64.5t-26.5 -64.5t-64.5 -27t-64.5 27t-26.5 64.5zM1298 365.5 q0 37.5 27 64.5t64.5 27t64.5 -27t27 -64.5t-27 -64.5t-64.5 -27t-64.5 27t-27 64.5z" />
<glyph unicode="&#xf0a1;" horiz-adv-x="2048" d="M0 768v219q0 76 53 129t129 53h549q498 0 1024 441q59 0 103.5 -44t44.5 -104v-438q59 0 102 -43t43 -103.5t-43 -103.5t-102 -43v-438q0 -59 -44 -103.5t-104 -44.5q-477 397 -928 435q-66 -20 -103.5 -74.5t-35.5 -115t45 -105.5q-23 -37 -25.5 -75t7.5 -66.5 t37.5 -62.5t54.5 -57.5t72 -58.5q-35 -66 -129.5 -94.5t-192.5 -13t-149 62.5q-8 27 -34 100.5t-37 108.5t-26.5 102.5t-17.5 115.5t4 112.5t25 126.5h-140q-76 0 -129 53t-53 129zM879 723q430 -47 876 -389v1089q-451 -344 -876 -391v-309z" />
<glyph unicode="&#xf0a2;" horiz-adv-x="1902" d="M0 145q217 184 327.5 454.5t110.5 569.5q0 190 109.5 301t302.5 134q-8 20 -8 43q0 45 31.5 76.5t77.5 31.5t78 -31.5t32 -76.5q0 -23 -10 -43q193 -23 302 -133.5t109 -301.5q0 -299 112 -569.5t329 -454.5q0 -59 -44 -102t-104 -43h-512q0 -121 -86 -207t-207 -86 t-207 86t-86 207h-512q-59 0 -102 43t-43 102zM209 145h1483q-186 207 -280.5 471.5t-94.5 552.5q0 293 -365.5 293t-365.5 -293q0 -289 -94.5 -553t-282.5 -471zM750 0q0 -84 59 -142.5t141 -58.5q18 0 18 18.5t-18 18.5q-68 0 -116 48t-48 116q0 18 -18 18t-18 -18z" />
<glyph unicode="&#xf0a3;" d="M2 498q-10 47 23 80l157 153l-157 154q-33 33 -23 82q14 45 59 57l215 55l-61 213q-12 45 23 80q33 35 79 21l213 -60l56 215q10 45 57 58q47 14 80 -23l156 -158l153 158q33 35 80 23t57 -58l56 -215l213 60q47 14 80 -21q35 -35 22 -80l-61 -213l215 -55q45 -12 59 -57 q12 -49 -22 -82l-158 -154l158 -153q35 -33 22 -80q-14 -47 -59 -60l-215 -53l61 -213q12 -47 -22 -80q-33 -37 -80 -22l-213 61l-56 -215q-10 -47 -57 -59q-14 -2 -22 -2q-35 0 -58 24l-153 158l-156 -158q-31 -35 -80 -22q-47 12 -57 59l-56 215l-213 -61q-47 -14 -79 22 q-35 33 -23 80l61 213l-215 53q-45 12 -59 60z" />
<glyph unicode="&#xf0a4;" horiz-adv-x="2048" d="M0 145v734q0 59 43 102t102 43h330q12 0 25.5 5t27 16.5t25.5 20.5t27.5 25.5t23.5 24.5t21.5 24.5t15.5 18.5q74 86 115 148q14 25 36.5 71.5t42 81.5t47 72t63.5 57.5t79 20.5q143 0 236.5 -77t93.5 -216q0 -78 -27 -148h428q119 0 206 -85.5t87 -204.5t-86 -206 t-207 -87h-192q-4 -72 -43 -137q4 -23 4 -50q0 -115 -70 -202q2 -160 -96 -251t-260 -91q-152 0 -367 77q-188 68 -256 68h-330q-59 0 -102 43t-43 102zM145 220q0 -30 22.5 -52.5t52.5 -22.5t50 23q23 23 23 52.5t-21.5 51t-51.5 21.5t-52.5 -21.5t-22.5 -51.5zM438 145h37 q82 0 190.5 -35.5t221 -72.5t205.5 -37q217 0 217 190q0 31 -6 64q35 18 54 60t19 84t-20 79q61 57 61 137q0 29 -11 64t-30 53h379q59 0 103.5 44.5t44.5 103.5q0 57 -45.5 101t-102.5 44h-657q0 23 16 55.5t38 63.5t38 78t16 96q0 76 -50 110.5t-132 34.5q-27 0 -102 -157 q-29 -51 -43 -76q-45 -72 -127 -164q-82 -94 -117 -123q-78 -63 -160 -63h-37v-734z" />
<glyph unicode="&#xf0a5;" horiz-adv-x="2048" d="M0 879q0 119 87 204.5t206 85.5h428q-27 70 -27 148q0 139 93.5 216t236.5 77q43 0 79 -20.5t63.5 -57.5t47 -72t42 -82t36.5 -71q41 -61 115 -148q2 -2 15.5 -18.5t21.5 -24.5t23.5 -24.5t27.5 -25.5t25.5 -20.5t27 -16.5t25.5 -5h330q59 0 102 -43t43 -102v-734 q0 -59 -43 -102t-102 -43h-330q-68 0 -256 -68q-217 -78 -361 -77q-164 0 -264 88t-98 247v7q-70 86 -70 202q0 27 4 50q-39 66 -43 137h-192q-121 0 -207 87t-86 206zM145 879q0 -59 44 -103.5t104 -44.5h379q-18 -18 -29.5 -53t-11.5 -64q0 -80 61 -137q-20 -37 -20 -79 t19.5 -84t53.5 -60q-4 -27 -4 -64q0 -96 55.5 -143t153.5 -47q96 0 210 37t222.5 72.5t190.5 35.5h37v734h-37q-41 0 -78 13t-70.5 42t-57.5 52.5t-56 62.5l-4 4t-5.5 5t-5.5 7q-82 92 -127 164q-16 27 -43 78q-2 4 -12 26.5t-21.5 41t-23.5 40t-24.5 34.5t-20.5 13 q-82 0 -132 -34.5t-50 -110.5q0 -49 16 -96t38 -78t38 -63.5t16 -55.5h-657q-57 0 -102.5 -44t-45.5 -101zM1755 220q0 -30 21.5 -52.5t51 -22.5t52.5 23t23 52.5t-22.5 51t-52.5 21.5t-51.5 -21.5t-21.5 -51.5z" />
<glyph unicode="&#xf0a6;" d="M0 731q0 143 77 236.5t216 93.5q78 0 145 -25v426q0 119 87 206t206 87t206 -86t87 -207v-192q72 -4 135 -43q25 4 49 4q117 0 205 -68q158 0 250 -98t92 -260q0 -152 -78 -367q-68 -188 -67 -256v-327q0 -61 -43 -104.5t-105 -43.5h-731q-59 0 -102 43t-43 105v327 q0 12 -5.5 25.5t-16.5 27t-20 25.5t-25.5 27.5t-25 23.5t-24.5 21.5t-20 15.5q-84 74 -148 115q-23 14 -70 37.5t-82.5 43t-71.5 46t-56.5 62.5t-20.5 79zM145 731q0 -27 160 -102q51 -27 74 -43q74 -45 166 -127t121 -117q66 -78 65 -160v-37h731v37q0 82 37 190.5 t74 221.5t37 207q0 215 -191 215q-31 0 -65 -6q-18 35 -59.5 55t-84.5 20t-80 -20q-55 59 -135 59q-29 0 -63.5 -11t-52.5 -28v377q0 59 -44 103.5t-104 44.5q-57 0 -101 -45t-44 -103v-657q-23 0 -55.5 17.5t-63.5 38t-78 36.5t-96 16q-78 0 -113 -50t-35 -132zM1317 -72.5 q0 -29.5 21.5 -51t51.5 -22t50 22.5q23 20 22.5 50t-22 51.5t-51 21.5t-51 -21.5t-21.5 -51z" />
<glyph unicode="&#xf0a7;" d="M0 731q0 43 20.5 80t56.5 63.5t71.5 46t83 42t69.5 36.5q63 41 148 115q4 2 20 16.5t24.5 21.5t25 22.5t25.5 27.5t20 26.5t16.5 27t5.5 24.5v330q0 59 43 102t102 43h731q61 0 104.5 -43t43.5 -102v-330q0 -68 67 -254q78 -217 78 -362q0 -164 -88 -264.5t-248 -98.5h-6 q-88 -70 -205 -70q-25 0 -49 5q-61 -35 -135 -43v-193q0 -121 -87 -207t-206 -86t-206 87t-87 206v428q-61 -27 -145 -27q-139 0 -216 93.5t-77 236.5zM145 731q0 -80 35 -131t113 -51q49 0 96 17.5t78 38t63.5 36.5t55.5 16v-657q0 -57 44 -101t101 -44q59 0 103.5 43 t44.5 102v379q51 -41 116 -41q80 0 135 61q37 -20 80 -20t84 19.5t60 54.5q29 -4 65 -4q96 0 143.5 55t47.5 153q0 96 -37 210t-74 222.5t-37 190.5v37h-731v-37q0 -41 -13 -78t-42 -70.5t-53.5 -57t-61.5 -56.5q-10 -8 -16 -12q-92 -84 -166 -129q-25 -16 -78 -43 q-2 -2 -24.5 -12.5t-42 -20.5t-41 -23.5t-35 -25t-13.5 -21.5zM1317 1536q0 -31 21.5 -52.5t51.5 -21t50 20.5q23 23 22.5 53.5t-22 52t-51 21.5t-51 -21.5t-21.5 -52.5z" />
<glyph unicode="&#xf0a8;" d="M0 732.5q0 238.5 118 440t319.5 319.5t440 118t440 -118t318.5 -321q119 -201 119 -439t-117.5 -440t-319.5 -319.5t-440.5 -117.5t-440 117.5t-319.5 319.5t-118 440.5zM287 731q0 -31 20 -51l105 -105l413 -413q20 -20 51 -20.5t52 20.5l104 104q20 20 20.5 51 t-20.5 52l-217 217h576q29 0 50 21t21 50v148q0 29 -21.5 51.5t-49.5 22.5h-576l217 215q23 23 23 52.5t-23 49.5l-104 104q-20 20 -51 20.5t-52 -20.5l-413 -413l-105 -105q-20 -20 -20 -51z" />
<glyph unicode="&#xf0a9;" d="M0 732.5q0 238.5 118 440t319.5 319.5t440 118t440 -118t318.5 -321q119 -201 119 -439t-117.5 -440t-319.5 -319.5t-440.5 -117.5t-440 117.5t-319.5 319.5t-118 440.5zM293 657q0 -29 21.5 -50t52.5 -21h573l-217 -217q-20 -20 -20.5 -50t20.5 -53l104 -104 q20 -20 51 -20.5t52 20.5l413 413l105 105q20 20 20 51t-20 51l-105 105l-413 413q-20 20 -51 20.5t-52 -20.5l-104 -104q-20 -20 -20.5 -51t20.5 -51l217 -215h-573q-31 0 -52.5 -22.5t-21.5 -51.5v-148z" />
<glyph unicode="&#xf0aa;" d="M0 732.5q0 238.5 118 440t319.5 319.5t440 118t440 -118t318.5 -321q119 -201 119 -439t-117.5 -440t-319.5 -319.5t-440.5 -117.5t-440 117.5t-319.5 319.5t-118 440.5zM289 733q0 -31 20 -51l103 -104q20 -20 52 -20.5t52 20.5l215 215v-574q0 -29 21.5 -51.5 t52.5 -22.5h145q31 0 52.5 22.5t21.5 51.5v574l215 -215q23 -23 52.5 -23t51.5 23l103 104q23 20 23 51t-23 51l-414 414l-102 105q-20 20 -51 20t-54 -20l-102 -105l-414 -414q-20 -20 -20 -51z" />
<glyph unicode="&#xf0ab;" d="M0 732.5q0 238.5 118 440t319.5 319.5t440 118t440 -118t318.5 -321q119 -201 119 -439t-117.5 -440t-319.5 -319.5t-440.5 -117.5t-440 117.5t-319.5 319.5t-118 440.5zM289 731q0 -31 20 -53l414 -414l102 -102q23 -20 53.5 -20.5t51.5 20.5l102 102l414 414 q23 23 23 53.5t-23 50.5l-103 103q-20 23 -50.5 22.5t-53.5 -22.5l-215 -215v573q0 31 -21.5 52.5t-52.5 21.5h-145q-31 0 -52.5 -21.5t-21.5 -52.5v-573l-215 215q-23 23 -52.5 22.5t-51.5 -22.5l-103 -103q-20 -20 -20 -51z" />
<glyph unicode="&#xf0ac;" d="M0 732.5q0 238.5 117.5 440t318.5 318.5q203 119 441.5 119t440.5 -118t319.5 -319.5t117.5 -440t-117.5 -440.5t-319.5 -319.5t-440.5 -117.5t-440 117.5t-319.5 319.5t-118 440.5zM258 1118q8 -8 14 -8q4 -2 5.5 -11t3.5 -12.5t12 3.5q10 -8 4 -21q2 0 51 -31 q20 -20 23 -24q4 -12 -11 -21q-2 2 -11 10.5t-9 4.5q-4 -6 0 -21.5t12 -13.5q-8 0 -11 -18.5t-3 -41v-26.5l2 -2q-4 -12 6 -38t25 -24q-14 -2 22 -49q6 -8 8 -10q4 -2 14.5 -8t17.5 -11.5t11 -11.5t11.5 -26.5t15.5 -26.5q-2 -6 11.5 -22.5t13.5 -26.5q-2 0 -4 -1l-3 -1 q4 -8 17.5 -16.5t17.5 -14.5q2 -4 3 -12t3 -12.5t9 -2.5q4 23 -27 72q-16 29 -18 33q-4 6 -7.5 17.5t-5.5 17.5q2 0 7.5 -2t10.5 -4.5t8 -5.5t1 -3q-2 -8 3 -20t13 -21.5t19.5 -21.5t13.5 -15q8 -6 17.5 -22t-1.5 -16q10 0 22.5 -11.5t20.5 -21.5q6 -10 9.5 -30.5t5.5 -27.5 q2 -8 9 -15t14.5 -11t18.5 -9t15 -8q6 -2 21.5 -12t23.5 -14q12 -4 19.5 -4t16.5 3t15 3q16 4 33 -15.5t25 -25.5q41 -20 61 -12q-2 0 1 -8.5t9.5 -18.5t10.5 -16.5t6 -8.5q6 -8 21.5 -18t19.5 -16q8 4 8 10q-2 -10 9 -23.5t20 -11.5q16 4 16 37q-35 -16 -55 20q0 2 -3 7.5 t-5.5 9.5t-3.5 9t0 8t6 3q10 0 12 4t-2 14.5t-4 16.5q-2 8 -13.5 21.5t-13.5 17.5q-6 -10 -18.5 -9t-18.5 11q0 -2 -2 -7t-2 -7q-14 0 -16 2q0 2 2 18.5t4 26.5q2 4 7 13t8 16.5t4 14.5t-5 11t-20 2q-20 0 -29 -22q-2 -2 -4 -11.5t-5 -13.5t-11 -8q-6 -4 -25.5 -3t-28.5 7 q-16 8 -26.5 32.5t-10.5 43.5q0 10 3.5 29.5t3.5 28.5t-7 28q4 2 10.5 10t10.5 12q4 2 6 2h5t5 2t2 7q0 2 -4 4l-4 2q8 -2 33 3t31 -3q18 -12 24 4l-2 10t0 14q6 -31 33 -10q4 -2 18.5 -5t18.5 -5t8 -6t6 -5t6 0t11 7q10 -16 14 -27q12 -47 20 -51q8 -2 13.5 -1t5.5 10v15.5 t-2 14.5l-2 10v21v8q-18 4 -21.5 14t1.5 20.5t18 20.5q0 2 8 5t18.5 7t14.5 11q25 20 16 38q8 0 12 11l-5 3q-5 3 -9 6l-4 3q10 4 2 18q6 2 9 11.5t7 11.5q10 -12 25 -2q8 10 2 18q4 8 22.5 12.5t20.5 10.5q8 -2 9 3t1 14.5t4 13.5q4 6 17.5 10t15.5 6l18 12q4 4 0 4 q20 -2 35 13q12 12 -6 22q4 8 -3 12.5t-17 6.5h13t11 2q18 10 -8 18q-18 4 -49 -14q-2 -2 -10.5 -11.5t-14.5 -11.5q2 0 5.5 6.5t5.5 13.5t4 7q6 8 24 18q16 6 60 13q39 10 59 -13q-2 2 10.5 15.5t16.5 13.5q4 2 17 5t17 9l2 25q-14 0 -20 8t-6 25q0 -2 -8 -11q0 8 -5.5 9.5 t-13.5 -0.5t-10 0q-10 2 -16.5 7t-9.5 19.5t-5 16.5q-2 6 -10 12t-10 12q-2 2 -4 6t-3 7.5t-4.5 6.5t-7.5 3t-8 -5.5t-8 -11.5l-4 -6q-4 2 -7 2t-5 -1t-5.5 -4t-7.5 -3q-2 -2 -8 -4t-10 -2q16 6 -2 12q-10 4 -19 4q10 4 9.5 13.5t-9.5 15.5h7q-2 4 -10.5 9t-19.5 10.5 t-16 7.5q-10 6 -39.5 11t-35.5 1q-6 -8 -6 -13.5t4 -15.5t4 -14q2 -6 -6.5 -14.5t-8.5 -14.5q0 -8 16.5 -17t12.5 -26q-4 -8 -18.5 -17t-18.5 -14q-6 -10 -2 -21t12 -20q2 -2 2.5 -4t-4 -5l-7.5 -5t-7 -4l-2 -2q-14 -6 -24.5 7t-14.5 30q-8 29 -18 35q-27 8 -35 -2 q-4 16 -45 30q-29 10 -68 4q8 2 0 17q-8 18 -20 14q2 6 3 19.5t1 15.5q4 16 14 27q2 2 8.5 10t10.5 15t2 7q39 -4 57 13q4 6 12.5 19t12.5 20q10 6 15 6t16.5 -6.5t17.5 -6.5q16 0 17 13.5t-9 21.5q14 0 4 21q-6 8 -10 10q-12 4 -31 -6q-8 -4 2 -8l-10 -13 q-10 -14 -18.5 -20t-18.5 6l-6 14q-6 15 -10 17q-10 0 -19 -17q2 8 -13 16.5t-28 8.5q23 14 -8 31q-8 6 -23.5 7t-23.5 -5q-4 -8 -5 -13.5t5 -9.5t12 -6t13.5 -4t9.5 -4q16 -10 10 -17q-2 0 -10 -3t-13.5 -5t-7.5 -4q-4 -6 0 -17.5t-2 -15.5q-6 6 -10 20.5t-8 18.5 q8 -10 -29 -6h-10q-6 0 -19.5 -2t-23.5 -1t-14 9q-6 8 0 23q0 4 4 2q-4 4 -12.5 11t-12.5 9q-51 -16 -106 -47q6 0 12 2t15 7.5t11 7.5q39 16 50 8l4 4q16 -18 24 -29q-8 6 -35 2q-23 -6 -24 -14q8 -12 4 -21q-4 4 -12 12.5t-16.5 12.5t-16.5 6q-18 0 -27 -2 q-166 -90 -268 -254zM1001 31q1 -9 5 -19q233 41 399 215q-2 4 -13.5 5t-15.5 6q-20 6 -26 8q2 8 -2.5 15t-9.5 10t-14 9.5t-13 8.5q-2 2 -8.5 6t-8.5 6t-8 5t-9 2t-11 -1h-4q-4 -2 -6.5 -4t-6.5 -3t-5 -3t1 -4q-25 20 -41 26q-6 0 -13 5.5t-12 8.5t-11.5 2t-12.5 -7 t-7 -17.5t-3 -15.5q-8 6 0 20.5t2 20.5q-2 6 -11.5 5t-14.5 -5t-13 -10.5t-10 -7.5t-9.5 -6t-9.5 -9q-4 -4 -7 -13t-5 -11q-2 4 -13.5 7t-11.5 5q2 -10 4.5 -39t6.5 -43q8 -37 -15 -55q-31 -29 -32 -48q-4 -25 14 -28q0 -8 -9.5 -23.5t-9.5 -23.5z" />
<glyph unicode="&#xf0ad;" horiz-adv-x="1902" d="M25 0q0 61 43 104l778 779q45 -113 131 -199t199 -131l-781 -778q-43 -43 -102 -43t-105 43l-120 123q-43 41 -43 102zM293 72.5q0 -29.5 21.5 -51t51.5 -21.5t50 20q23 23 22.5 52.5t-22 51t-51 21.5t-51 -21.5t-21.5 -51zM879 1097q0 212 149.5 362.5t362.5 150.5 q66 0 138.5 -19.5t121.5 -52.5q18 -14 18 -33.5t-18 -31.5l-334 -193v-256l221 -123q4 4 89 56.5t155.5 92.5t81.5 40q16 0 25 -11.5t9 -27.5q0 -45 -24 -121q-55 -154 -189.5 -249t-293.5 -95q-213 0 -362.5 149.5t-149.5 361.5z" />
<glyph unicode="&#xf0ae;" horiz-adv-x="2048" d="M0 74v293q0 29 21.5 50t52.5 21h1900q31 0 52.5 -21t21.5 -50v-293q0 -31 -21.5 -52.5t-52.5 -21.5h-1900q-31 0 -52.5 21.5t-21.5 52.5zM0 657v293q0 31 21.5 52.5t52.5 21.5h1900q31 0 52.5 -21.5t21.5 -52.5v-293q0 -29 -21.5 -50t-52.5 -21h-1900q-31 0 -52.5 21.5 t-21.5 49.5zM0 1243v293q0 31 21.5 52.5t52.5 21.5h1900q31 0 52.5 -21.5t21.5 -52.5v-293q0 -29 -21.5 -51.5t-52.5 -22.5h-1900q-31 0 -52.5 22.5t-21.5 51.5zM731 731h1172v148h-1172v-148zM1169 145h734v148h-734v-148zM1462 1317h441v145h-441v-145z" />
<glyph unicode="&#xf0b0;" horiz-adv-x="1609" d="M6 1419q18 43 68 43h1462q48 0 68 -43q18 -47 -17 -82l-563 -563v-848q0 -47 -45 -67q-14 -4 -29 -4q-31 0 -51 20l-293 293q-20 23 -20 51v555l-563 563q-37 35 -17 82z" />
<glyph unicode="&#xf0b1;" horiz-adv-x="2050" d="M0 137v492h2050v-492q0 -39 -14 -69q-12 -27 -41 -47.5t-84 -20.5h-1778q-39 2 -67 16q-25 12 -45.5 40t-20.5 81zM0 700v19v110v357q0 37 14 67q12 27 39 48.5t80 21.5h551v66q-2 76 27 137q12 27 31.5 51.5t48 43.5t69.5 31.5t94 12.5h136q76 0 135 -29q51 -25 94 -82 t43 -165v-66h549q39 0 69 -14q27 -12 48.5 -41t21.5 -82v-363v-123h-2050zM852 500q0 -35 25.5 -60.5t60.5 -25.5h170q37 0 61.5 25.5t24.5 60.5v86h-342v-86zM852 756h342v131h-342v-131zM864 1323h320v72q0 37 -17 67q-14 27 -47 48.5t-96 21.5q-45 -2 -80 -16 q-31 -12 -55.5 -41t-24.5 -80v-72z" />
<glyph unicode="&#xf0b2;" d="M0 -74v512q0 49 45 68q45 20 80 -17l164 -163l405 405l-405 406l-164 -164q-23 -23 -51 -23q-14 0 -29 6q-45 20 -45 68v512q0 31 21.5 52.5t52.5 21.5h512q47 0 67 -47q18 -43 -16 -78l-166 -164l408 -408l405 408l-166 164q-35 35 -14 78q18 47 65 47h512 q31 0 52.5 -21.5t21.5 -52.5v-512q0 -47 -45 -68q-14 -6 -29 -6q-29 0 -51 23l-164 164l-405 -406l405 -405l164 163q35 37 80 17q45 -18 45 -68v-512q0 -29 -21.5 -50t-52.5 -21h-512q-47 0 -65 45q-20 45 14 77l166 166l-405 406l-408 -406l166 -166q35 -33 16 -77 q-20 -45 -67 -45h-512q-31 0 -52.5 21.5t-21.5 49.5z" />
<glyph unicode="&#xf0c0;" horiz-adv-x="2971" d="M0 143q-4 18 1 77t16.5 127.5t30 134t40.5 100.5q25 31 52.5 47t60 26.5t69.5 22.5t78 35q10 4 19.5 12t13.5 14q47 -45 94 -76.5t98 -31.5q53 0 102.5 31.5t90.5 76.5q10 -6 20.5 -11t20.5 -15q16 -6 30.5 -14.5t22.5 -12.5q-29 -16 -62.5 -42t-58.5 -62 q-35 -47 -60.5 -125t-44 -166t-28.5 -171t-12 -138h-14h-7q-4 0 -9 3t-11 3q-90 0 -174 13t-150.5 28.5t-111.5 29t-58 15.5q-31 10 -43 24.5t-16 44.5zM285 1105q2 25 22 25v-8q-10 78 -1 143.5t42 112.5t88.5 74t136.5 27q82 0 138.5 -27t89.5 -74t44 -112.5t5 -143.5v8 q20 4 21 -22.5t-11 -54.5q-8 -31 -11 -49.5t-13 -24.5q-14 0 -15 8q-10 -49 -34.5 -97t-58.5 -87t-74 -62.5t-81 -23.5q-39 0 -77.5 23.5t-70.5 62.5t-56.5 87t-34.5 97q-9 -8 -15 -8q-10 6 -13 23.5t-13 46.5q-10 31 -8 56zM690 -68q-2 14 1 56.5t10.5 98.5t17.5 120.5 t24.5 125t32 110t37.5 77.5q31 43 70 65.5t84 39t96 33t106 47.5q16 10 27.5 20t26.5 20q59 -66 124.5 -107.5t137.5 -41.5q68 0 135.5 42t124.5 107q24 -24 55 -40q57 -31 107.5 -47.5t95.5 -33t83 -39t68 -65.5q20 -29 39 -79t32 -110.5t24.5 -125t18.5 -120.5t9 -97 t2 -56q-4 -47 -24.5 -63t-56.5 -33q-18 -6 -81 -24.5t-154 -40t-206 -40t-237 -20.5h-70q-123 2 -237.5 20.5t-206 40t-153.5 40t-81 24.5q-35 16 -55.5 32.5t-26.5 63.5zM1082.5 1245q2.5 33 33.5 29v-6q-14 104 -1 194t58.5 154.5t122 101.5t189.5 37q111 0 185.5 -37 t119.5 -101.5t60.5 -154.5t4.5 -194v6q25 4 27 -29t-8 -74q-14 -41 -21.5 -68.5t-17.5 -27.5q-4 -6 -10 -2t-10 8q-14 -70 -47 -135t-77 -117.5t-97.5 -84t-108.5 -31.5q-53 0 -106.5 31.5t-99.5 83t-81 116t-49 131.5q-2 -4 -4 -4q-4 -4 -10 4q-14 0 -22.5 27.5t-18.5 68.5 q-14 41 -11.5 74zM2100 1105q1 25 22 25v-8q-10 78 -1 143.5t41.5 112.5t88 74t139.5 27q82 0 138.5 -27t88 -74t43 -112.5t4.5 -143.5v8q20 4 22.5 -22.5t-7.5 -54.5q-10 -31 -14.5 -49.5t-14.5 -24.5q-14 0 -14 8q-10 -49 -35 -97t-57.5 -87t-72.5 -62.5t-81 -23.5 t-79 23.5t-70.5 62.5t-57 87t-35.5 97q-6 -8 -12 -8q-10 6 -13 23.5t-14 46.5q-10 31 -9 56zM2109 686q10 4 23.5 12.5t30.5 14.5q10 4 20 12t15 14q47 -45 93 -76.5t99 -31.5q51 0 100.5 31.5t89.5 76.5q10 -6 20.5 -11t20.5 -15q41 -23 78 -35t70 -22.5t61.5 -26.5 t51.5 -47q25 -35 42 -100.5t28 -134t16.5 -127t3.5 -77.5q-6 -31 -18.5 -45t-45.5 -24q-12 -4 -57 -18.5t-111.5 -30t-149.5 -26.5t-173 -11q-6 0 -10.5 -3t-8.5 -3h-8h-14q-2 55 -12.5 138t-29 171t-44 166t-58.5 125q-27 37 -60.5 62.5t-62.5 41.5z" />
<glyph unicode="&#xf0c1;" horiz-adv-x="1902" d="M18.5 1243q-0.5 137 96.5 232l168 167q96 94 233 95q137 0 234 -97l233 -237q96 -94 96 -232q0 -141 -100 -239l100 -101q98 100 238 101q137 0 233 -96l238 -238q96 -94 96 -231.5t-98 -233.5l-168 -166q-94 -96 -232 -96q-139 0 -233 98l-235 236q-94 96 -95 233 q0 139 101 238l-101 100q-98 -100 -237 -100q-137 0 -234 96l-237 238q-96 96 -96.5 233zM238 1243q0 -45 32 -78l238 -237q31 -31 78 -31t82 35q-4 4 -22.5 21.5t-25 24.5t-16.5 22.5t-14 28.5t-4 32q0 45 31.5 76.5t76.5 31.5q18 0 32.5 -3t29 -14t21.5 -17.5t24.5 -24.5 t21.5 -23q37 37 37 84q0 45 -31 78l-235 236q-33 33 -78 33t-78 -31l-168 -166q-33 -33 -32 -78zM1040 438q0 -47 33 -78l236 -237q31 -31 77 -31q45 0 78 31l168 166q33 33 33 78t-33 77l-237 238q-33 31 -78 31q-49 0 -82 -37l20.5 -20.5l24.5 -24.5t17.5 -21.5t15.5 -30 t4 -30.5q0 -45 -32 -78t-79 -33q-16 0 -30.5 4t-30 15.5t-21.5 17.5l-24.5 24.5l-20.5 20.5q-39 -35 -39 -82z" />
<glyph unicode="&#xf0c2;" horiz-adv-x="2193" d="M0 512q0 152 81 276.5t214 186.5q-2 33 -2 49q0 242 171 414t415 172q180 0 326.5 -100.5t213.5 -264.5q80 72 191 72q121 0 207 -86t86 -207q0 -86 -48 -158q147 -35 242.5 -153.5t95.5 -274.5q0 -180 -128 -309t-310 -129h-1243q-211 0 -361.5 150.5t-150.5 361.5z" />
<glyph unicode="&#xf0c3;" horiz-adv-x="1902" d="M132 -73.5q-40 71.5 24 173.5l575 908v454h-74q-29 0 -50 21.5t-21 52.5t21.5 52.5t49.5 21.5h586q31 0 52.5 -21.5t21.5 -52.5t-21.5 -52.5t-52.5 -21.5h-74v-454l576 -908q63 -102 24.5 -173.5t-159.5 -71.5h-1317q-121 0 -161 71.5zM545 438h813l-311 492l-23 35v43 v454h-145v-454v-43l-25 -35z" />
</font>
</defs>
</svg>
